<svg id="Capa_1" data-name="Capa 1" xmlns="http://www.w3.org/2000/svg" xmlns:xlink="http://www.w3.org/1999/xlink" width="50" height="50" viewBox="0 0 50 50">
  <defs>
    <clipPath id="clip-path">
      <polygon points="24.04 49.76 1.25 39.47 1.41 9.18 24.2 19.47 24.04 49.76" fill="none"/>
    </clipPath>
    <clipPath id="clip-path-2">
      <polygon points="24.2 19.47 1.41 9.18 25.96 0.24 48.75 10.53 24.2 19.47" fill="none"/>
    </clipPath>
    <clipPath id="clip-path-3">
      <polygon points="48.75 10.53 48.59 40.83 24.04 49.76 24.2 19.47 48.75 10.53" fill="none"/>
    </clipPath>
  </defs>
  <g id="Figment_lido">
    <g style="isolation: isolate">
      <g>
        <polygon points="24.04 49.76 1.25 39.47 1.41 9.18 24.2 19.47 24.04 49.76" fill="#a0cdc6"/>
        <g style="isolation: isolate">
          <g clip-path="url(#clip-path)">
            <g>
              <path d="M14.31,34.9c.09-.34.29-.47.59-.39s.37,0,.42-.36c.1-.84.47-1.29,1.1-1.28a1.35,1.35,0,0,1,.52.11,2.65,2.65,0,0,1,1.14,1.23.85.85,0,0,0,.34.41.31.31,0,0,0,.13,0,.46.46,0,0,1,.45,0,.83.83,0,0,1,.35.31,1.51,1.51,0,0,1,.32,1.15.75.75,0,0,0,.36.73,1.44,1.44,0,0,1,.6,1,.84.84,0,0,1-.29.88.44.44,0,0,1-.39,0l-5-2.23a1.46,1.46,0,0,1-.64-1.57M4.44,30.61c0-.55.35-.87.74-.8.18,0,.28-.08.3-.32C5.62,28.42,6.19,28,7,28.38l0,0a2.48,2.48,0,0,1,.87.89c.1.17.21.36.3.55a.82.82,0,0,0,.34.4.37.37,0,0,0,.15,0,.4.4,0,0,1,.43,0,.87.87,0,0,1,.33.27,1.48,1.48,0,0,1,.34,1.1.75.75,0,0,0,.39.83,1.6,1.6,0,0,1,.59,1.26c0,.52-.32.79-.71.61L6.38,32.66l-.65-.29-.65-.3a1.46,1.46,0,0,1-.64-1.46M8.75,29.2a1,1,0,0,1-.39-.43c-.24-.43-.25-.42-.16-.83.53-2.16,2-3.22,3.78-2.69a4.29,4.29,0,0,1,.5.19c2,.87,3.63,3.26,4.25,6.17l.06.29c0,.09,0,.08-.06.06a1.84,1.84,0,0,0-.76-.07h-.06c-.05,0-.06-.12-.07-.19A9.32,9.32,0,0,0,15,29.51,5.58,5.58,0,0,0,12.53,27a2.11,2.11,0,0,0-2.74.7,4,4,0,0,0-.65,1.35c0,.13-.1.14-.2.14a.31.31,0,0,1-.19,0M6.84,27.37a7.77,7.77,0,0,1,.79-2.18A3.65,3.65,0,0,1,10.92,23a4.31,4.31,0,0,1,1.72.39,8.88,8.88,0,0,1,3.77,3.9,16.1,16.1,0,0,1,2,6,.44.44,0,0,1,0,.09,3.93,3.93,0,0,0-1.05-1.15c-.1-.07-.09-.17-.11-.26a11.64,11.64,0,0,0-2.06-4.87,7,7,0,0,0-2.66-2.26C10.59,24,8.7,24.7,7.9,27.27a5.09,5.09,0,0,0-.14.56c0,.05,0,.11-.06.09l0,0A2.16,2.16,0,0,0,7,27.44l-.19-.07m-1.5.28a11.59,11.59,0,0,1,.53-2.55A6,6,0,0,1,9,21.17a4.34,4.34,0,0,1,3.57.14,10.14,10.14,0,0,1,4.15,3.86,19.9,19.9,0,0,1,3,8.44c0,.23,0,.45.08.71a2.39,2.39,0,0,0-.78-.65l-.1,0h0c-.08,0-.07-.13-.08-.21a17.51,17.51,0,0,0-1.2-4.58,12.33,12.33,0,0,0-3.7-5.2,6.81,6.81,0,0,0-1.42-.86,3.58,3.58,0,0,0-4,.51,6.49,6.49,0,0,0-2,3.81c0,.14-.07.18-.17.18a1.24,1.24,0,0,0-.91.38m7.33-7.25a5.8,5.8,0,0,0-2.51-.52c-2,0-3.48,1.34-4.49,3.45a13.18,13.18,0,0,0-1.11,5.29c0,.14,0,.22-.11.27a1.35,1.35,0,0,0-.57.75c-.06.16-.1.34-.16.51v.7l0,.09a2.71,2.71,0,0,0,1.45,2.13L10,35.2a1.59,1.59,0,0,0,.32.12c.61.12,1.07-.34,1.14-1.12a3.16,3.16,0,0,0-.83-2.38.39.39,0,0,1-.14-.27,3,3,0,0,0-.63-1.65c-.08-.11-.1-.16-.07-.27a3.18,3.18,0,0,1,.52-1.06A1.7,1.7,0,0,1,12.49,28a3.18,3.18,0,0,1,.65.4,6.49,6.49,0,0,1,2.14,3.73.18.18,0,0,1,0,.21,2,2,0,0,0-.53,1.07c0,.11-.07.15-.16.15-.68,0-1.06.71-.94,1.73A2.79,2.79,0,0,0,15,37.42l2.47,1.1,2.47,1.1c.66.29,1.2,0,1.37-.81a3.09,3.09,0,0,0-.68-2.46.42.42,0,0,1-.1-.3,18,18,0,0,0-.13-2.18,20.9,20.9,0,0,0-2.87-8.64,11.55,11.55,0,0,0-4.84-4.83" fill="#3c122c"/>
              <path d="M5.43,16.07h0c-.07,0-.1.05-.12.14-.08.26-.17.51-.24.77s-.08.17-.17.19l-.59.11c-.07,0-.11,0-.11.15a.3.3,0,0,0,.11.23c.19.2.37.41.56.6a.74.74,0,0,1,.2.38c.07.33.16.67.23,1a.38.38,0,0,0,.13.23c.06,0,.1,0,.13-.1s.07-.21.09-.33c.09-.45.25-.8.66-.73a.63.63,0,0,0,.19,0c.08,0,.18,0,.18-.16s-.1-.22-.17-.31L6,17.69a.74.74,0,0,1-.21-.4c-.06-.31-.14-.64-.22-.95,0-.11,0-.23-.13-.27" fill="#f5df6e"/>
              <path d="M5.42,19.87a.38.38,0,0,1-.13-.23c-.07-.33-.16-.67-.23-1a.74.74,0,0,0-.2-.38c-.19-.19-.37-.4-.56-.6a.3.3,0,0,1-.11-.23c0-.11,0-.14.11-.15l.59-.11c.09,0,.14-.07.17-.19s.16-.51.24-.77c0-.09,0-.17.12-.14h0c.09,0,.11.16.13.27.08.31.16.64.22.95a.74.74,0,0,0,.21.4l.51.52c.07.09.17.16.17.31s-.1.14-.18.16a.63.63,0,0,1-.19,0c-.41-.07-.57.28-.66.73,0,.12-.07.23-.09.33s-.07.11-.13.1m0-4.15h0c-.25-.1-.33.18-.36.27a3,3,0,0,1-.1.32c0,.15-.09.3-.13.46l0,0-.38.07-.21,0c-.21,0-.26.24-.26.41a.88.88,0,0,0,.26.61l.17.19c.13.14.26.29.4.43s0,0,0,.1c.06.23.11.47.17.71l.07.29a.82.82,0,0,0,.35.56l0,0h0A.29.29,0,0,0,5.79,20l0-.09c0-.09,0-.17.07-.27.09-.45.22-.6.46-.56a.79.79,0,0,0,.23,0h0c.08,0,.31-.05.3-.43a1,1,0,0,0-.3-.66l0,0-.51-.53A.17.17,0,0,1,6,17.3c-.06-.3-.13-.6-.2-.89l0-.08c-.08-.34-.2-.53-.38-.61" fill="#3c122c"/>
              <path d="M18.72,17.89h0c-.08,0-.1.06-.12.13-.09.27-.17.53-.25.79s-.07.16-.16.17l-.58.11c-.06,0-.12,0-.12.14a.36.36,0,0,0,.12.26c.17.18.34.38.51.54a.91.91,0,0,1,.27.51c.06.3.13.6.2.9,0,.1.05.2.14.24h0c.07,0,.1-.06.12-.14.07-.24.15-.47.21-.73s.13-.25.26-.26l.49-.07a.16.16,0,0,0,.14-.18c0-.12-.07-.18-.13-.24-.19-.21-.38-.43-.58-.62a.62.62,0,0,1-.16-.31c-.07-.34-.15-.66-.22-1,0-.11,0-.23-.14-.27" fill="#f5df6e"/>
              <path d="M18.72,21.68c-.09,0-.11-.14-.14-.24-.07-.3-.14-.6-.2-.9a.91.91,0,0,0-.27-.51c-.17-.16-.34-.36-.51-.54a.36.36,0,0,1-.12-.26c0-.12.06-.13.12-.14l.58-.11c.09,0,.13-.06.16-.17s.16-.52.25-.79c0-.07,0-.17.12-.13h0c.1,0,.11.16.14.27.07.32.15.64.22,1a.62.62,0,0,0,.16.31c.2.19.39.41.58.62.06.06.14.12.13.24a.16.16,0,0,1-.14.18l-.49.07c-.13,0-.22.08-.26.26s-.14.49-.21.73c0,.08-.05.16-.12.14h0m0-4.14h0c-.17-.07-.29,0-.36.24l0,.12-.21.7v0a3,3,0,0,0-.45.07l-.15,0c-.07,0-.27.05-.27.39a1,1,0,0,0,.27.65,1.07,1.07,0,0,1,.14.16c.13.14.26.28.4.41s.07.06.1.21c.06.3.14.61.21.91a.78.78,0,0,0,.38.59h0c.24.08.31-.17.34-.26l.06-.19c.05-.18.11-.37.16-.57s0-.09.11-.1l.32-.05.17,0c.25,0,.3-.25.3-.43a.87.87,0,0,0-.26-.62l-.14-.15c-.15-.16-.31-.34-.47-.5h0v0c-.07-.28-.13-.57-.2-.86l0-.13a.77.77,0,0,0-.38-.6" fill="#3c122c"/>
              <path d="M8.42,14.91h0c-.26-.12-.49.09-.49.44a1,1,0,0,0,.48.89h0c.27.11.48-.1.48-.47a1,1,0,0,0-.46-.87" fill="#f5df6e"/>
              <path d="M8.4,16.24a1,1,0,0,1-.48-.89c0-.35.23-.56.49-.44h0a1,1,0,0,1,.46.87c0,.37-.21.58-.48.47h0m0-1.69h0c-.41-.18-.75.14-.75.68a1.81,1.81,0,0,0,.22.84,1.21,1.21,0,0,0,.52.53c.41.18.74-.14.74-.71a1.58,1.58,0,0,0-.72-1.34" fill="#3c122c"/>
              <path d="M17,21.25h0c-.15-.06-.25,0-.25.25A.57.57,0,0,0,17,22h0c.13.05.25-.06.25-.24a.56.56,0,0,0-.26-.48" fill="#f5df6e"/>
              <path d="M17,22a.57.57,0,0,1-.26-.48c0-.22.1-.31.25-.25h0a.56.56,0,0,1,.26.48c0,.18-.12.29-.25.24h0m0-1.08h0c-.3-.12-.51.08-.51.49a1.1,1.1,0,0,0,.52.94c.29.12.52-.1.52-.46a1.12,1.12,0,0,0-.15-.58.88.88,0,0,0-.37-.39" fill="#3c122c"/>
              <path d="M12.56,21.31A4.34,4.34,0,0,0,9,21.17,6,6,0,0,0,5.87,25.1a11.59,11.59,0,0,0-.53,2.55,1.24,1.24,0,0,1,.91-.38c.1,0,.15,0,.17-.18a6.49,6.49,0,0,1,2-3.81,3.58,3.58,0,0,1,4-.51,6.81,6.81,0,0,1,1.42.86,12.33,12.33,0,0,1,3.7,5.2,17.51,17.51,0,0,1,1.2,4.58c0,.08,0,.17.08.21h0l.1,0a2.39,2.39,0,0,1,.78.65c0-.26-.05-.48-.08-.71a19.9,19.9,0,0,0-3-8.44,10.14,10.14,0,0,0-4.15-3.86" fill="#a0e7c2"/>
              <path d="M12.64,23.4A4.31,4.31,0,0,0,10.92,23a3.65,3.65,0,0,0-3.29,2.18,7.77,7.77,0,0,0-.79,2.18l.19.07a2.16,2.16,0,0,1,.63.45l0,0s0,0,.06-.09a5.09,5.09,0,0,1,.14-.56c.8-2.57,2.69-3.23,4.59-2.39a7,7,0,0,1,2.66,2.26A11.64,11.64,0,0,1,17.21,32c0,.09,0,.19.11.26a3.93,3.93,0,0,1,1.05,1.15.44.44,0,0,0,0-.09,16.1,16.1,0,0,0-2-6,8.88,8.88,0,0,0-3.77-3.9" fill="#f5df6e"/>
              <path d="M12.48,25.44a4.29,4.29,0,0,0-.5-.19c-1.76-.53-3.25.53-3.78,2.69-.09.41-.08.4.16.83a1,1,0,0,0,.39.43.31.31,0,0,0,.19,0c.1,0,.17,0,.2-.14a4,4,0,0,1,.65-1.35,2.11,2.11,0,0,1,2.74-.7A5.58,5.58,0,0,1,15,29.51a9.32,9.32,0,0,1,.89,2.19c0,.07,0,.16.07.19H16a1.84,1.84,0,0,1,.76.07s.08,0,.06-.06l-.06-.29c-.62-2.91-2.29-5.3-4.25-6.17" fill="#d688b8"/>
              <path d="M7,28.38c-.83-.37-1.4,0-1.54,1.11,0,.24-.12.35-.3.32-.39-.07-.69.25-.74.8a2.21,2.21,0,0,0,.69.45l1,.46,2.09.94c.47.2.79,0,.91-.48a1.9,1.9,0,0,0-.31-1.47c0-.08-.13-.14-.15-.24a.37.37,0,0,1-.15,0,.82.82,0,0,1-.34-.4c-.09-.19-.2-.38-.3-.55a2.48,2.48,0,0,0-.87-.89l0,0" fill="#fefefe"/>
              <path d="M16.94,33a1.35,1.35,0,0,0-.52-.11c-.63,0-1,.44-1.1,1.28-.05.37-.14.44-.42.36s-.5.05-.59.39a.64.64,0,0,0,.4.41l0,0,2,.88,1.54.67c.73.31,1-.58.81-1.3a1.92,1.92,0,0,0-.51-.94.31.31,0,0,1-.13,0,.85.85,0,0,1-.34-.41A2.65,2.65,0,0,0,16.94,33" fill="#fefefe"/>
              <path d="M9.15,30.23a.4.4,0,0,0-.43,0c0,.1.1.16.15.24A1.9,1.9,0,0,1,9.18,32c-.12.51-.44.68-.91.48l-2.09-.94-1-.46a2.21,2.21,0,0,1-.69-.45,1.46,1.46,0,0,0,.64,1.46l.65.3.65.29,3.71,1.64c.39.18.68-.09.71-.61a1.6,1.6,0,0,0-.59-1.26.75.75,0,0,1-.39-.83,1.48,1.48,0,0,0-.34-1.1.87.87,0,0,0-.33-.27" fill="#e0bcfb"/>
              <path d="M19,34.61a.46.46,0,0,0-.45,0,1.92,1.92,0,0,1,.51.94c.16.72-.08,1.61-.81,1.3l-1.54-.67-2-.88,0,0a.64.64,0,0,1-.4-.41A1.46,1.46,0,0,0,15,36.47l5,2.23a.44.44,0,0,0,.39,0,.84.84,0,0,0,.29-.88,1.44,1.44,0,0,0-.6-1,.75.75,0,0,1-.36-.73,1.51,1.51,0,0,0-.32-1.15.83.83,0,0,0-.35-.31" fill="#e0bcfb"/>
              <polyline points="6.4 35 5.79 34.73 5.25 37.96 4.72 34.25 4.11 33.98 4.83 38.45 5.66 38.82 6.4 35" fill="#3c122c"/>
              <path d="M8.15,36.82,7,36.29v.62l.59.26V39L6.8,38.7v.63l2.09.93v-.63l-.75-.33V36.82m0-1.52L7.55,35V36l.6.27v-1" fill="#3c122c"/>
              <path d="M10.44,37l-.6-.27v.89l-.58-.26v.62l.59.26v1.44a1.83,1.83,0,0,0,.18.91,1.46,1.46,0,0,0,.69.53l.5.23v-.63l-.45-.2a.52.52,0,0,1-.25-.2.65.65,0,0,1-.07-.33V38.46l.78.35v-.63l-.78-.34V37" fill="#3c122c"/>
              <path d="M12.72,41.48a.5.5,0,0,1-.26-.24.76.76,0,0,1-.09-.38c0-.18.05-.3.14-.33s.24,0,.46.09l.24.1v.06a1.08,1.08,0,0,1-.13.62.26.26,0,0,1-.36.08m.08-2.67a2,2,0,0,0-.43-.14,1.82,1.82,0,0,0-.4,0v.7a1.07,1.07,0,0,1,.43,0,1.29,1.29,0,0,1,.41.1.65.65,0,0,1,.31.25.55.55,0,0,1,.1.34v.13L12.8,40a1,1,0,0,0-.8-.1q-.25.15-.27.69a1.77,1.77,0,0,0,.22.88,1.32,1.32,0,0,0,.61.56.62.62,0,0,0,.37.05.42.42,0,0,0,.28-.19v.34l.6.27V40.68a2.54,2.54,0,0,0-.23-1.21,1.63,1.63,0,0,0-.78-.66" fill="#3c122c"/>
              <path d="M15.46,38.85l-1.21-.53v.62l.61.27v2.41A2.31,2.31,0,0,0,15,42.7a1.18,1.18,0,0,0,.61.57l.65.29v-.63l-.48-.21a.51.51,0,0,1-.28-.28,1.36,1.36,0,0,1-.09-.56v-3" fill="#3c122c"/>
              <path d="M18.22,41.3,17,40.77v.63l.58.26v1.86l-.75-.33v.62l2.09.93v-.62l-.74-.33V41.3m0-1.52-.6-.27v1l.6.27v-.95" fill="#3c122c"/>
              <polyline points="20.06 40.9 19.46 40.64 19.45 44.96 20.05 45.23 20.06 44.04 20.26 43.87 20.89 45.6 21.55 45.9 20.63 43.54 21.5 42.76 20.78 42.44 20.06 43.17 20.06 40.9" fill="#3c122c"/>
            </g>
          </g>
        </g>
      </g>
      <g>
        <polygon points="24.2 19.47 1.41 9.18 25.96 0.24 48.75 10.53 24.2 19.47" fill="#afe1d9"/>
        <g style="isolation: isolate">
          <g clip-path="url(#clip-path-2)">
            <g>
              <path d="M30.55,10.53c-.18-.16-.12-.31.16-.44s.28-.2.06-.34c-.53-.33-.57-.67-.09-1a1.6,1.6,0,0,1,.47-.24,4.72,4.72,0,0,1,1.74-.22,1.6,1.6,0,0,0,.56,0,.34.34,0,0,0,.12-.06.51.51,0,0,1,.31-.25,1.59,1.59,0,0,1,.49-.09,1.79,1.79,0,0,1,1.06.2,1,1,0,0,0,.8,0,2.36,2.36,0,0,1,1.18,0c.34.1.51.28.41.44a.5.5,0,0,1-.29.21l-5.38,1.95a1.88,1.88,0,0,1-1.6-.16M20,14.42c-.35-.2-.36-.46,0-.65.16-.09.16-.17,0-.26-.67-.42-.54-.86.36-1.18l0,0a4.63,4.63,0,0,1,1.29-.17c.21,0,.42,0,.63,0a1.46,1.46,0,0,0,.54-.05L23,12a.46.46,0,0,1,.3-.25,2.25,2.25,0,0,1,1.49.09,1.08,1.08,0,0,0,.89.06A2.26,2.26,0,0,1,27,12c.35.18.33.42-.09.57l-4,1.46-.7.25-.71.26A2,2,0,0,1,20,14.42m2.24-2.75a1.73,1.73,0,0,1-.6.06c-.49,0-.5,0-.72-.18-1.15-1-.78-2.11.93-2.88a4,4,0,0,1,.52-.21A14.25,14.25,0,0,1,30,8.17l.26.07c.08,0,0,0,0,0a2.54,2.54,0,0,0-.62.38s0,0-.05,0a.41.41,0,0,1-.19,0,13.38,13.38,0,0,0-2.24-.23,10.11,10.11,0,0,0-3.6.5c-1.1.39-1.72,1-1.57,1.69a1.44,1.44,0,0,0,.48.78c.07.06,0,.1,0,.15a.55.55,0,0,1-.17.1m-2.75.43a3.19,3.19,0,0,1-1-1.13c-.4-.87-.2-1.7.92-2.46A7.07,7.07,0,0,1,21,7.72,16,16,0,0,1,26.67,7a19.92,19.92,0,0,1,5.82.89l.06,0a7.2,7.2,0,0,0-1.62.19.4.4,0,0,1-.27,0,16.18,16.18,0,0,0-5.05-.47A13.16,13.16,0,0,0,22,8.27c-2,.75-3,2-1.75,3.23a3.79,3.79,0,0,0,.29.26s.07,0,0,.06h-.05a4.27,4.27,0,0,0-.8.19l-.19.08m-.93.89a6.25,6.25,0,0,1-1.44-1.11A2.2,2.2,0,0,1,16.67,9a5.6,5.6,0,0,1,2.8-1.87,19,19,0,0,1,5.91-1,25.77,25.77,0,0,1,8.3,1.13l.57.19a4.77,4.77,0,0,0-1.06.2l-.1,0h0a.29.29,0,0,1-.21,0,21,21,0,0,0-4.19-.83,21.08,21.08,0,0,0-6.53.3,13.88,13.88,0,0,0-1.69.48C18.85,8.18,18,9,17.78,9.91s.28,1.59,1.2,2.32c.08.06.08.1,0,.15a.81.81,0,0,0-.41.61m.33-6.26a9.15,9.15,0,0,0-2.27,1.18C15.1,9,15,10.2,15.71,11.42a6.94,6.94,0,0,0,3,2.3c.1,0,.14.08.1.14a.47.47,0,0,0,.11.55,3,3,0,0,0,.25.25l.5.23h.09a4.5,4.5,0,0,0,2.63-.09l5.15-1.88a2,2,0,0,0,.33-.14c.55-.28.56-.68.05-1a4,4,0,0,0-2.33-.32.61.61,0,0,1-.3,0,4,4,0,0,0-1.66-.2c-.13,0-.19,0-.24,0a1.17,1.17,0,0,1-.37-.62c-.08-.55.26-1,1.19-1.35A5.48,5.48,0,0,1,25,9a10.39,10.39,0,0,1,4.3.06c.11,0,.11.05.12.09a.76.76,0,0,0,.36.64c.06.05.05.08,0,.13-.5.37-.28.8.54,1.06a4.35,4.35,0,0,0,2.6,0l2.66-1,2.65-1c.71-.26.88-.65.45-1a3.55,3.55,0,0,0-2.27-.43.68.68,0,0,1-.3,0A13.35,13.35,0,0,0,34.39,7,26.83,26.83,0,0,0,26,5.7a21.27,21.27,0,0,0-7.12,1" fill="#3c122c"/>
              <path d="M10.33,9.21h0c-.08,0,0,.07,0,.11l.38.38a.09.09,0,0,1,0,.15l-.36.35s-.05.07,0,.11a.52.52,0,0,0,.25,0l.85-.1a.84.84,0,0,1,.42,0l.9.19a.57.57,0,0,0,.26,0c.05,0,.06-.06,0-.1l-.17-.16c-.26-.19-.38-.39,0-.59A.47.47,0,0,0,13,9.48s.13-.1,0-.15a.69.69,0,0,0-.35,0l-.75.1a1.13,1.13,0,0,1-.45,0l-.84-.19a.48.48,0,0,0-.29,0" fill="#f5df6e"/>
              <path d="M13,10.44a.57.57,0,0,1-.26,0l-.9-.19a.84.84,0,0,0-.42,0l-.85.1a.52.52,0,0,1-.25,0c-.07,0-.06-.07,0-.11l.36-.35a.08.08,0,0,0,0-.15l-.38-.38s-.08-.08,0-.11h0a.48.48,0,0,1,.29,0l.84.19a1.13,1.13,0,0,0,.45,0l.75-.1a.69.69,0,0,1,.35,0c.12.05,0,.11,0,.15a.47.47,0,0,1-.13.11c-.35.2-.23.4,0,.59l.17.16s0,.07,0,.1m-3-1.35h0c-.26.1-.12.24-.07.28l.15.16.22.22v0l-.24.22-.13.13c-.13.13,0,.22.1.27a1.23,1.23,0,0,0,.63.06l.26,0,.62-.08s0,0,.11,0l.63.14.27.06a1.32,1.32,0,0,0,.66,0h0l0,0c.13-.07.16-.16.07-.25l0,0a.89.89,0,0,0-.14-.13c-.25-.19-.26-.31-.05-.43a.7.7,0,0,0,.15-.12l0,0,0,0c.05,0,.19-.17-.08-.29a1.4,1.4,0,0,0-.71-.05h0l-.77.1a.16.16,0,0,1-.12,0l-.79-.18h-.08a1.25,1.25,0,0,0-.72,0" fill="#3c122c"/>
              <path d="M21.67,2.69h0c-.08,0,0,.07,0,.11s.24.26.38.39.06.09,0,.14l-.37.34s-.08.07,0,.11a.53.53,0,0,0,.28,0c.26,0,.53,0,.77-.1a1.35,1.35,0,0,1,.57,0l.8.19a.53.53,0,0,0,.28,0h0c.08,0,0-.08,0-.11A4,4,0,0,0,24,3.45c-.1-.08-.08-.15,0-.23s.21-.18.32-.28.07-.09,0-.13a.53.53,0,0,0-.28,0l-.88.11a.77.77,0,0,1-.34,0L22,2.7a.48.48,0,0,0-.29,0" fill="#f5df6e"/>
              <path d="M24.39,3.91a.53.53,0,0,1-.28,0l-.8-.19a1.35,1.35,0,0,0-.57,0c-.24,0-.51.07-.77.1a.53.53,0,0,1-.28,0c-.09,0,0-.07,0-.11l.37-.34c.06-.05.05-.09,0-.14s-.26-.26-.38-.39-.09-.08,0-.11h0a.48.48,0,0,1,.29,0l.88.19a.77.77,0,0,0,.34,0l.88-.11a.53.53,0,0,1,.28,0c.09,0,.07.08,0,.13s-.2.19-.32.28-.11.15,0,.23a4,4,0,0,1,.36.35s.09.07,0,.11h0m-3-1.34h0c-.19.07-.22.16-.1.27l.05,0c.11.12.22.23.34.34v0l-.29.26-.08.09c-.05,0-.17.16.07.27a1.26,1.26,0,0,0,.67.07l.22,0c.2,0,.4,0,.6-.08a.46.46,0,0,1,.22,0l.82.18a1.25,1.25,0,0,0,.7,0h0c.23-.1.11-.22.07-.26l-.1-.1a2.62,2.62,0,0,0-.29-.26s0-.05,0-.1a1.29,1.29,0,0,0,.21-.19L24.7,3c.16-.15.05-.25-.08-.3A1.28,1.28,0,0,0,24,2.65l-.21,0-.72.08h0l-.77-.17-.11,0a1.32,1.32,0,0,0-.72,0" fill="#3c122c"/>
              <path d="M11.75,7.23h0c-.28.1-.31.29-.05.41a1.62,1.62,0,0,0,1,0h0c.29-.1.3-.28,0-.4a1.56,1.56,0,0,0-1,0" fill="#f5df6e"/>
              <path d="M12.69,7.68a1.62,1.62,0,0,1-1,0c-.26-.12-.23-.31.05-.41h0a1.56,1.56,0,0,1,1,0c.26.12.25.3,0,.4h0m-1.2-.56h0c-.44.16-.48.45-.08.63a2,2,0,0,0,.76.15,2.24,2.24,0,0,0,.77-.11c.45-.16.47-.44.06-.63a2.43,2.43,0,0,0-1.51,0" fill="#3c122c"/>
              <path d="M22.81,4.67h0c-.16.06-.17.14,0,.21a.83.83,0,0,0,.54,0h0c.14-.06.14-.16,0-.22a.86.86,0,0,0-.55,0" fill="#f5df6e"/>
              <path d="M23.33,4.9a.83.83,0,0,1-.54,0c-.16-.07-.15-.15,0-.21h0a.86.86,0,0,1,.55,0c.12.06.12.16,0,.22h0m-.78-.35h0c-.31.12-.32.29,0,.43a1.7,1.7,0,0,0,1.07,0c.3-.11.32-.3.06-.42a1.31,1.31,0,0,0-.53-.11,1.59,1.59,0,0,0-.56.07" fill="#3c122c"/>
              <path d="M19.47,7.08A5.6,5.6,0,0,0,16.67,9a2.2,2.2,0,0,0,.46,2.93A6.25,6.25,0,0,0,18.57,13a.81.81,0,0,1,.41-.61c.08-.05.08-.09,0-.15-.92-.73-1.38-1.5-1.2-2.32s1.07-1.73,2.67-2.31a13.88,13.88,0,0,1,1.69-.48,21.08,21.08,0,0,1,6.53-.3,21,21,0,0,1,4.19.83.29.29,0,0,0,.21,0h0l.1,0a4.77,4.77,0,0,1,1.06-.2l-.57-.19a25.77,25.77,0,0,0-8.3-1.13,19,19,0,0,0-5.91,1" fill="#a0e7c2"/>
              <path d="M21,7.72a7.07,7.07,0,0,0-1.58.79c-1.12.76-1.32,1.59-.92,2.46a3.19,3.19,0,0,0,1,1.13l.19-.08a4.27,4.27,0,0,1,.8-.19h.05c.05,0,0,0,0-.06a3.79,3.79,0,0,1-.29-.26C19,10.24,19.94,9,22,8.27a13.16,13.16,0,0,1,3.63-.69,16.18,16.18,0,0,1,5.05.47.4.4,0,0,0,.27,0,7.2,7.2,0,0,1,1.62-.19l-.06,0A19.92,19.92,0,0,0,26.67,7,16,16,0,0,0,21,7.72" fill="#f5df6e"/>
              <path d="M22.38,8.46a4,4,0,0,0-.52.21c-1.71.77-2.08,1.91-.93,2.88.22.19.23.18.72.18a1.73,1.73,0,0,0,.6-.06.55.55,0,0,0,.17-.1c.07-.05.12-.09,0-.15a1.44,1.44,0,0,1-.48-.78c-.15-.69.47-1.3,1.57-1.69a10.11,10.11,0,0,1,3.6-.5,13.38,13.38,0,0,1,2.24.23.41.41,0,0,0,.19,0s0,0,.05,0a2.54,2.54,0,0,1,.62-.38s.09,0,0,0L30,8.17a14.25,14.25,0,0,0-7.63.29" fill="#d688b8"/>
              <path d="M20.36,12.33c-.9.32-1,.76-.36,1.18.15.09.15.17,0,.26-.34.19-.33.45,0,.65a3.66,3.66,0,0,0,.84-.22L22,13.79,24.23,13c.49-.18.61-.41.34-.64a2,2,0,0,0-1.29-.3A1.4,1.4,0,0,1,23,12l-.13.07a1.46,1.46,0,0,1-.54.05c-.21,0-.42,0-.63,0a4.63,4.63,0,0,0-1.29.17l0,0" fill="#fefefe"/>
              <path d="M31.15,8.51a1.6,1.6,0,0,0-.47.24c-.48.33-.44.67.09,1,.22.14.22.22-.06.34s-.34.28-.16.44a1.06,1.06,0,0,0,.59-.08l.06,0,2.11-.76,1.63-.6c.79-.3.33-.71-.31-.86a2.89,2.89,0,0,0-1.06,0,.34.34,0,0,1-.12.06,1.6,1.6,0,0,1-.56,0,4.72,4.72,0,0,0-1.74.22" fill="#fefefe"/>
              <path d="M23.29,11.78A.46.46,0,0,0,23,12a1.4,1.4,0,0,0,.29,0,2,2,0,0,1,1.29.3c.27.23.15.46-.34.64L22,13.79l-1.13.41a3.66,3.66,0,0,1-.84.22,2,2,0,0,0,1.53.14l.71-.26.7-.25,4-1.46c.42-.15.44-.39.09-.57a2.26,2.26,0,0,0-1.35-.09,1.08,1.08,0,0,1-.89-.06,2.25,2.25,0,0,0-1.49-.09" fill="#e0bcfb"/>
              <path d="M33.88,7.93a.51.51,0,0,0-.31.25,2.89,2.89,0,0,1,1.06,0c.64.15,1.1.56.31.86l-1.63.6-2.11.76-.06,0a1.06,1.06,0,0,1-.59.08,1.88,1.88,0,0,0,1.6.16l5.38-1.95a.5.5,0,0,0,.29-.21c.1-.16-.07-.34-.41-.44a2.36,2.36,0,0,0-1.18,0,1,1,0,0,1-.8,0,1.79,1.79,0,0,0-1.06-.2,1.59,1.59,0,0,0-.49.09" fill="#e0bcfb"/>
              <polyline points="24.64 14.79 23.98 15.03 25.89 16.36 22.83 15.45 22.18 15.69 25.93 16.75 26.83 16.42 24.64 14.79" fill="#3c122c"/>
              <path d="M27.26,14.44,26,14.91l.45.2.63-.23,1.33.6-.8.3L28,16l2.25-.82-.45-.2-.79.29-1.79-.81M26.18,14l-.65.24.68.31.65-.24L26.18,14" fill="#3c122c"/>
              <path d="M29.09,13.26l-.64.24.63.28-.63.23.45.2.63-.23,1,.47a2,2,0,0,0,.79.2,2.69,2.69,0,0,0,.91-.21l.53-.19-.44-.2-.5.18a1.09,1.09,0,0,1-.33.07,1.11,1.11,0,0,1-.29-.07l-1.05-.48.83-.3-.44-.21-.84.31-.64-.29" fill="#3c122c"/>
              <path d="M34.06,13.51a.85.85,0,0,1-.36.05.77.77,0,0,1-.34-.07c-.13-.06-.18-.12-.14-.18a1,1,0,0,1,.42-.22l.25-.09h0c.21.1.33.19.35.28s-.05.16-.22.22m-1.85-.91a2.91,2.91,0,0,0-.43.19,1.41,1.41,0,0,0-.31.21l.5.22a1.31,1.31,0,0,1,.28-.24,2.36,2.36,0,0,1,.39-.19,1.29,1.29,0,0,1,.41-.08.7.7,0,0,1,.33,0l.09.05L33,13c-.39.14-.62.27-.68.4s0,.24.3.36a2,2,0,0,0,.8.17,2.5,2.5,0,0,0,.85-.15.79.79,0,0,0,.32-.18c.07-.07.1-.14.07-.21l.25.11.64-.23-1.27-.58a2.81,2.81,0,0,0-1-.27,3,3,0,0,0-1.06.21" fill="#3c122c"/>
              <path d="M34.25,11.19l-1.3.47.45.21.65-.24,1.73.78a2.72,2.72,0,0,0,.91.25,2.18,2.18,0,0,0,.88-.15l.69-.25-.45-.2-.51.19a1,1,0,0,1-.42.06,1.46,1.46,0,0,1-.46-.14l-2.17-1" fill="#3c122c"/>
              <path d="M38.09,10.5,36.82,11l.45.2.63-.23,1.33.6-.8.29.45.21,2.24-.82-.45-.2-.8.29-1.78-.81M37,10l-.64.24.68.3.65-.23L37,10" fill="#3c122c"/>
              <polyline points="39.2 9.39 38.55 9.63 41.65 11.03 42.3 10.79 41.45 10.41 41.48 10.24 43.19 10.46 43.9 10.21 41.52 9.93 41.62 9.22 40.84 9.5 40.83 10.13 39.2 9.39" fill="#3c122c"/>
            </g>
          </g>
        </g>
      </g>
      <g>
        <polygon points="48.75 10.53 48.59 40.83 24.04 49.76 24.2 19.47 48.75 10.53" fill="#b3e6de"/>
        <g style="isolation: isolate">
          <g clip-path="url(#clip-path-3)">
            <g>
              <path d="M38.31,33.9A1.3,1.3,0,0,1,39,33a.71.71,0,0,0,.45-.69,3.1,3.1,0,0,1,1.2-2.17,2.16,2.16,0,0,1,.56-.32,1.13,1.13,0,0,1,1.23.26.33.33,0,0,0,.37.11.41.41,0,0,0,.14-.08,1.17,1.17,0,0,1,.49-.4.46.46,0,0,1,.38,0c.28.11.39.41.33.85s.1.47.39.42.57.12.64.5a1.42,1.42,0,0,1-.31,1.1,1.12,1.12,0,0,1-.42.32l-5.4,2c-.52.19-.85-.3-.69-1m-10.65,4a1.92,1.92,0,0,1,.8-1.4.69.69,0,0,0,.33-.56,2.74,2.74,0,0,1,1.66-2.35h0a1,1,0,0,1,.94.15,1.44,1.44,0,0,1,.33.28.32.32,0,0,0,.36.11l.16-.09a1.06,1.06,0,0,1,.47-.4.53.53,0,0,1,.35,0c.29.1.4.38.37.79s.06.56.41.49.66.27.64.75a1.34,1.34,0,0,1-.76,1.18l-4,1.46-.7.26-.71.25c-.47.16-.8-.29-.68-.9m4.66-4.94a.41.41,0,0,1-.41-.11c-.27-.21-.28-.19-.18-.68a8.62,8.62,0,0,1,4.09-5.74,5,5,0,0,1,.55-.23c2.11-.77,3.9.18,4.57,2.5,0,.08.05.16.07.23s0,.1-.07.12a3.14,3.14,0,0,0-.82.56l-.06,0c-.07,0-.07-.07-.09-.12A3.47,3.47,0,0,0,39,28.1a2.53,2.53,0,0,0-2.61-.41,5.81,5.81,0,0,0-3,3,8.21,8.21,0,0,0-.71,1.86.47.47,0,0,1-.21.3.8.8,0,0,1-.21.13m-2.06-.21a15.25,15.25,0,0,1,.86-2.79,11.56,11.56,0,0,1,3.56-4.85,7.67,7.67,0,0,1,1.86-1,3.92,3.92,0,0,1,4.06.69A6.55,6.55,0,0,1,42.72,29a.51.51,0,0,1,0,.09,1.63,1.63,0,0,0-1.14-.25c-.1,0-.09-.09-.11-.16a4.16,4.16,0,0,0-2.22-3.05,3.77,3.77,0,0,0-2.86,0,8.87,8.87,0,0,0-5,6.13c-.06.23-.11.45-.16.67,0,0,0,.12-.06.13h0a1.41,1.41,0,0,0-.69.09l-.2.08m-1.62,1.52a17.79,17.79,0,0,1,.58-2.94,16.93,16.93,0,0,1,3.38-6.42,9.67,9.67,0,0,1,3.87-2.82,5,5,0,0,1,4.47.35c1.79,1.15,2.8,3.13,3.19,5.77,0,.2,0,.4.08.63a1.21,1.21,0,0,0-.84,0l-.11,0h0c-.08,0-.07-.07-.08-.14a8,8,0,0,0-1.29-3.48,4.25,4.25,0,0,0-4-2,5.65,5.65,0,0,0-1.53.33A9.34,9.34,0,0,0,32,27.39a15.18,15.18,0,0,0-2.21,5.42.45.45,0,0,1-.18.31,3.71,3.71,0,0,0-1,1.13m8-13.16a10.29,10.29,0,0,0-2.72,1.57A16,16,0,0,0,29,29.74a18.79,18.79,0,0,0-1.21,6.1.53.53,0,0,1-.12.35,3.67,3.67,0,0,0-.63,1.21c-.06.2-.11.42-.16.63v.68l0,.06c.23.89.75,1.17,1.56.88l5.18-1.89a2.17,2.17,0,0,0,.35-.15,2.74,2.74,0,0,0,1.23-2c.09-.9-.25-1.52-.89-1.64-.08,0-.13,0-.14-.15a1.18,1.18,0,0,0-.68-1.09c-.08,0-.11-.08-.07-.21A7,7,0,0,1,34,31a4.75,4.75,0,0,1,2.34-2.4,2.81,2.81,0,0,1,.71-.15c1.18-.09,1.88.67,2.3,1.88a.28.28,0,0,1,0,.24,4.55,4.55,0,0,0-.59,1.49.38.38,0,0,1-.16.27,2.78,2.78,0,0,0-1,2.48,1.07,1.07,0,0,0,1.49,1l2.67-1,2.66-1a2.56,2.56,0,0,0,1.48-1.93c.18-.89-.1-1.63-.72-1.84-.08,0-.11-.09-.11-.21a14.7,14.7,0,0,0-.13-2c-.36-2.7-1.33-4.8-3.08-6.07a5.31,5.31,0,0,0-5.21-.71" fill="#3c122c"/>
              <path d="M28.77,22.86h0c-.08,0-.11.14-.14.24-.09.32-.18.63-.26.95a.63.63,0,0,1-.18.33l-.65.6a.3.3,0,0,0-.11.22c0,.11.06.13.12.15a5.79,5.79,0,0,0,.6.12c.12,0,.18.08.21.21s.17.52.26.78c0,.07.05.14.13.12a.33.33,0,0,0,.14-.2c0-.13.07-.27.1-.4a1.76,1.76,0,0,1,.72-1.27,1.51,1.51,0,0,0,.2-.17c.08-.09.2-.16.2-.32s-.11-.13-.19-.15l-.54-.1a.24.24,0,0,1-.23-.21c-.07-.26-.15-.51-.23-.75,0-.08-.05-.18-.15-.15" fill="#f5df6e"/>
              <path d="M28.75,26.58c-.08,0-.11,0-.13-.12-.09-.26-.18-.52-.26-.78s-.09-.2-.21-.21a5.79,5.79,0,0,1-.6-.12c-.06,0-.12,0-.12-.15a.3.3,0,0,1,.11-.22l.65-.6a.63.63,0,0,0,.18-.33c.08-.32.17-.63.26-.95,0-.1.06-.2.14-.24h0c.1,0,.12.07.15.15.08.24.16.49.23.75a.24.24,0,0,0,.23.21l.54.1c.08,0,.18,0,.19.15s-.12.23-.2.32a1.51,1.51,0,0,1-.2.17A1.76,1.76,0,0,0,29,26c0,.13-.07.27-.1.4a.33.33,0,0,1-.14.2m0-4.07h0a.8.8,0,0,0-.38.56c0,.14-.07.27-.11.4s-.11.37-.15.56l0,.07-.41.38-.23.22a.81.81,0,0,0-.28.6c0,.22.09.36.28.39l.18,0c.14,0,.28.07.44.09s0,0,.05.06.11.37.17.55l.08.23c.08.22.2.31.38.26h0l0,0a.85.85,0,0,0,.35-.5l0-.11c0-.11.06-.22.08-.33a1.26,1.26,0,0,1,.5-.93,1.32,1.32,0,0,0,.25-.21l0,0,0,0a.88.88,0,0,0,.33-.66.37.37,0,0,0-.33-.4h0c-.18,0-.36-.07-.55-.09s-.05,0-.06-.06c-.06-.24-.14-.47-.21-.7l0-.07c-.09-.26-.22-.34-.41-.28" fill="#3c122c"/>
              <path d="M43.14,13.63h0a.3.3,0,0,0-.14.24l-.27,1a.56.56,0,0,1-.17.3c-.21.18-.42.38-.63.58a.32.32,0,0,0-.13.24c0,.12.06.14.13.15a3.35,3.35,0,0,0,.55.11c.16,0,.24.11.29.27s.14.48.21.72c0,.07.05.16.15.12h0a.32.32,0,0,0,.13-.24c.08-.29.17-.58.23-.88a.85.85,0,0,1,.29-.48l.53-.47a.4.4,0,0,0,.15-.29c0-.12-.08-.12-.14-.13s-.41-.1-.62-.12a.22.22,0,0,1-.18-.18l-.24-.77c0-.08,0-.18-.14-.15" fill="#f5df6e"/>
              <path d="M43.12,17.34c-.1,0-.12-.05-.15-.12-.07-.24-.15-.47-.21-.72s-.13-.27-.29-.27a3.35,3.35,0,0,1-.55-.11c-.07,0-.13,0-.13-.15a.32.32,0,0,1,.13-.24c.21-.2.42-.4.63-.58a.56.56,0,0,0,.17-.3l.27-1a.3.3,0,0,1,.14-.24h0c.1,0,.12.07.14.15l.24.77a.22.22,0,0,0,.18.18c.21,0,.41.08.62.12s.14,0,.14.13a.4.4,0,0,1-.15.29l-.53.47a.85.85,0,0,0-.29.48c-.06.3-.15.59-.23.88a.32.32,0,0,1-.13.24h0m0-4.05h0a.76.76,0,0,0-.4.54l0,.14c-.08.29-.16.57-.23.86v0c-.17.14-.33.29-.49.44l-.15.15a.81.81,0,0,0-.3.61c0,.23.09.37.29.41l.16,0a1.84,1.84,0,0,0,.42.08s.07,0,.11.12.14.49.22.72.22.33.41.26h0a.84.84,0,0,0,.37-.54l.06-.24a7,7,0,0,0,.18-.69.32.32,0,0,1,.12-.19,3.38,3.38,0,0,0,.35-.31l.19-.16a.91.91,0,0,0,.32-.67c0-.33-.21-.37-.28-.38l-.15,0-.51-.1h0l-.21-.69,0-.09c-.07-.27-.21-.35-.4-.28" fill="#3c122c"/>
              <path d="M32,19.25h0a1,1,0,0,0-.54.85c0,.36.24.57.52.47h0a1,1,0,0,0,.52-.85c0-.36-.23-.57-.5-.47" fill="#f5df6e"/>
              <path d="M32,20.57c-.28.1-.52-.11-.52-.47a1,1,0,0,1,.54-.85h0c.27-.1.5.11.5.47a1,1,0,0,1-.52.85h0m0-1.67h0a1.48,1.48,0,0,0-.82,1.29.84.84,0,0,0,.24.63.56.56,0,0,0,.56.09,1.45,1.45,0,0,0,.81-1.31c0-.54-.36-.86-.78-.71" fill="#3c122c"/>
              <path d="M41.31,18.3h0a.44.44,0,0,0-.27.45c0,.19.12.3.28.25h0a.52.52,0,0,0,.27-.44c0-.18-.13-.31-.28-.26" fill="#f5df6e"/>
              <path d="M41.31,19c-.16,0-.28-.06-.28-.25a.44.44,0,0,1,.27-.45h0c.15-.05.29.08.28.26a.52.52,0,0,1-.27.44h0m0-1.05h0a1,1,0,0,0-.55.9c0,.38.25.6.56.49a1,1,0,0,0,.56-.88.53.53,0,0,0-.16-.44.39.39,0,0,0-.4-.07" fill="#3c122c"/>
              <path d="M36.47,22.07a9.67,9.67,0,0,0-3.87,2.82,16.93,16.93,0,0,0-3.38,6.42,17.79,17.79,0,0,0-.58,2.94,3.71,3.71,0,0,1,1-1.13.45.45,0,0,0,.18-.31A15.18,15.18,0,0,1,32,27.39a9.34,9.34,0,0,1,4.35-3.82,5.65,5.65,0,0,1,1.53-.33,4.25,4.25,0,0,1,4,2,8,8,0,0,1,1.29,3.48c0,.07,0,.17.08.14h0l.11,0a1.21,1.21,0,0,1,.84,0c0-.23-.05-.43-.08-.63-.39-2.64-1.4-4.62-3.19-5.77a5,5,0,0,0-4.47-.35" fill="#a0e7c2"/>
              <path d="M36.54,24.05a7.67,7.67,0,0,0-1.86,1,11.56,11.56,0,0,0-3.56,4.85,15.25,15.25,0,0,0-.86,2.79l.2-.08a1.41,1.41,0,0,1,.69-.09h0s0-.08.06-.13c.05-.22.1-.44.16-.67a8.87,8.87,0,0,1,5-6.13,3.77,3.77,0,0,1,2.86,0,4.16,4.16,0,0,1,2.22,3.05c0,.07,0,.18.11.16a1.63,1.63,0,0,1,1.14.25.51.51,0,0,0,0-.09,6.55,6.55,0,0,0-2.12-4.26,3.92,3.92,0,0,0-4.06-.69" fill="#f5df6e"/>
              <path d="M36.37,26.18a5,5,0,0,0-.55.23,8.62,8.62,0,0,0-4.09,5.74c-.1.49-.09.47.18.68a.41.41,0,0,0,.41.11.8.8,0,0,0,.21-.13.47.47,0,0,0,.21-.3,8.21,8.21,0,0,1,.71-1.86,5.81,5.81,0,0,1,3-3A2.53,2.53,0,0,1,39,28.1,3.47,3.47,0,0,1,40,29.51s0,.14.09.12l.06,0a3.14,3.14,0,0,1,.82-.56s.09,0,.07-.12,0-.15-.07-.23c-.67-2.32-2.46-3.27-4.57-2.5" fill="#d688b8"/>
              <path d="M30.45,33.57a2.74,2.74,0,0,0-1.66,2.35.69.69,0,0,1-.33.56,1.92,1.92,0,0,0-.8,1.4,1.51,1.51,0,0,0,.74-.13l1.13-.41,2.26-.83a1.58,1.58,0,0,0,1-1.21c.13-.57,0-1-.32-1.18-.06,0-.14,0-.17-.11l-.16.09a.32.32,0,0,1-.36-.11,1.44,1.44,0,0,0-.33-.28,1,1,0,0,0-.94-.15h0" fill="#fefefe"/>
              <path d="M41.16,29.85a2.16,2.16,0,0,0-.56.32,3.1,3.1,0,0,0-1.2,2.17A.71.71,0,0,1,39,33a1.3,1.3,0,0,0-.64.87c.1.18.28.13.43.07l.06,0c.7-.24,1.41-.49,2.11-.75s1.1-.4,1.65-.62a1.72,1.72,0,0,0,.89-1.94.67.67,0,0,0-.55-.5.41.41,0,0,1-.14.08.33.33,0,0,1-.37-.11,1.13,1.13,0,0,0-1.23-.26" fill="#fefefe"/>
              <path d="M32.75,33.61a1.06,1.06,0,0,0-.47.4c0,.07.11.08.17.11.34.22.45.61.32,1.18a1.58,1.58,0,0,1-1,1.21l-2.26.83-1.13.41a1.51,1.51,0,0,1-.74.13c-.12.61.21,1.06.68.9l.71-.25.7-.26,4-1.46a1.34,1.34,0,0,0,.76-1.18c0-.48-.26-.81-.64-.75s-.44,0-.41-.49-.08-.69-.37-.79a.53.53,0,0,0-.35,0" fill="#e0bcfb"/>
              <path d="M43.39,29.74a1.17,1.17,0,0,0-.49.4.67.67,0,0,1,.55.5,1.72,1.72,0,0,1-.89,1.94c-.55.22-1.1.42-1.65.62s-1.41.51-2.11.75l-.06,0c-.15.06-.33.11-.43-.07-.16.7.17,1.19.69,1l5.4-2a1.12,1.12,0,0,0,.42-.32,1.42,1.42,0,0,0,.31-1.1c-.07-.38-.31-.56-.64-.5s-.43-.09-.39-.42-.05-.74-.33-.85a.46.46,0,0,0-.38,0" fill="#e0bcfb"/>
              <polyline points="29.76 40.55 29.1 40.79 28.5 44.39 27.94 41.21 27.29 41.45 28.05 45.22 28.95 44.89 29.76 40.55" fill="#3c122c"/>
              <path d="M31.64,40.87l-1.27.47V42l.63-.23v1.82l-.8.3v.61l2.26-.82V43l-.8.29V40.87m0-1.48-.65.23v.93l.65-.23v-.93" fill="#3c122c"/>
              <path d="M34.12,39.1l-.64.24v.87l-.63.23v.61l.63-.23v1.41c0,.39.06.64.19.74s.38.07.76-.06l.53-.2V42.1l-.5.18c-.12,0-.21,0-.26,0s-.08-.13-.08-.26V40.59l.84-.31v-.61l-.84.3V39.1" fill="#3c122c"/>
              <path d="M36.57,41.65a.27.27,0,0,1-.27,0,.38.38,0,0,1-.1-.3.68.68,0,0,1,.14-.44,1.31,1.31,0,0,1,.51-.3l.26-.09v0a1.57,1.57,0,0,1-.15.72.72.72,0,0,1-.39.38m.1-2.68a2.27,2.27,0,0,0-.47.23,2.89,2.89,0,0,0-.43.31v.68a2.58,2.58,0,0,1,.46-.39,2,2,0,0,1,.45-.24.43.43,0,0,1,.33,0c.08,0,.11.12.11.25v.13l-.45.16a2.06,2.06,0,0,0-.87.57,1.46,1.46,0,0,0-.28.9.86.86,0,0,0,.23.68.65.65,0,0,0,.66,0,1.22,1.22,0,0,0,.4-.25,1.25,1.25,0,0,0,.3-.42v.34l.64-.24V40a1.33,1.33,0,0,0-.24-1q-.24-.22-.84,0" fill="#3c122c"/>
              <path d="M39.54,36.81l-1.3.48v.61l.65-.24V40a1.4,1.4,0,0,0,.2.91c.13.14.35.16.66,0l.69-.26V40.1l-.52.19c-.14.05-.25,0-.31,0a.87.87,0,0,1-.09-.48l0-3" fill="#3c122c"/>
              <path d="M42.52,36.92l-1.28.46V38l.63-.23v1.83l-.8.29v.61l2.25-.82v-.61l-.8.29V36.92m0-1.49-.65.24v.93l.64-.24v-.93" fill="#3c122c"/>
              <polyline points="44.51 35 43.86 35.24 43.84 39.47 44.49 39.24 44.5 38.08 44.72 37.74 45.39 38.91 46.1 38.65 45.12 37.1 46.06 35.63 45.28 35.91 44.5 37.23 44.51 35" fill="#3c122c"/>
            </g>
          </g>
        </g>
      </g>
    </g>
  </g>
</svg>
