<svg id="Capa_1" data-name="Capa 1" xmlns="http://www.w3.org/2000/svg" xmlns:xlink="http://www.w3.org/1999/xlink" width="50" height="50" viewBox="0 0 50 50">
  <defs>
    <clipPath id="clip-path">
      <polygon points="24.04 49.76 1.25 39.47 1.41 9.18 24.2 19.47 24.04 49.76" fill="none"/>
    </clipPath>
    <clipPath id="clip-path-2">
      <polygon points="24.2 19.47 1.41 9.18 25.96 0.24 48.75 10.53 24.2 19.47" fill="none"/>
    </clipPath>
    <clipPath id="clip-path-3">
      <polygon points="48.75 10.53 48.59 40.83 24.04 49.76 24.2 19.47 48.75 10.53" fill="none"/>
    </clipPath>
  </defs>
  <g id="Figment_lido">
    <g style="isolation: isolate">
      <g>
        <polygon points="24.04 49.76 1.25 39.47 1.41 9.18 24.2 19.47 24.04 49.76" fill="#86a9a3"/>
        <g style="isolation: isolate">
          <g clip-path="url(#clip-path)">
            <g>
              <path d="M14.31,34.9c.09-.34.29-.47.59-.39s.37,0,.41-.36c.11-.84.48-1.29,1.11-1.28a1.35,1.35,0,0,1,.52.11,2.65,2.65,0,0,1,1.14,1.23.85.85,0,0,0,.34.41.31.31,0,0,0,.13,0,.46.46,0,0,1,.45,0,.83.83,0,0,1,.35.31,1.51,1.51,0,0,1,.32,1.15.73.73,0,0,0,.36.73,1.44,1.44,0,0,1,.6,1,.84.84,0,0,1-.29.88.44.44,0,0,1-.39,0l-5-2.23a1.46,1.46,0,0,1-.64-1.57M4.44,30.61c0-.55.35-.87.74-.8.18,0,.28-.08.3-.32C5.62,28.42,6.19,28,7,28.38l0,0a2.38,2.38,0,0,1,.86.89,4.88,4.88,0,0,1,.31.55.75.75,0,0,0,.34.39.23.23,0,0,0,.14,0,.41.41,0,0,1,.44,0,.87.87,0,0,1,.33.27,1.48,1.48,0,0,1,.34,1.1.75.75,0,0,0,.39.83,1.6,1.6,0,0,1,.59,1.26c0,.52-.32.79-.71.61L6.38,32.66l-.65-.29-.65-.3a1.46,1.46,0,0,1-.64-1.46M8.75,29.2a1,1,0,0,1-.39-.43c-.24-.43-.26-.42-.16-.83.53-2.16,2-3.22,3.78-2.69a5.1,5.1,0,0,1,.5.19c2,.87,3.62,3.26,4.25,6.17l.06.29c0,.09,0,.08-.06.06a1.68,1.68,0,0,0-.76-.07h-.06c-.06,0-.06-.13-.08-.19A9.29,9.29,0,0,0,15,29.51,5.58,5.58,0,0,0,12.53,27a2.11,2.11,0,0,0-2.74.69,4.19,4.19,0,0,0-.65,1.36c0,.13-.1.14-.2.14a.31.31,0,0,1-.19,0M6.84,27.37a7.77,7.77,0,0,1,.79-2.18A3.64,3.64,0,0,1,10.92,23a4.31,4.31,0,0,1,1.72.39,8.88,8.88,0,0,1,3.77,3.9,16.1,16.1,0,0,1,2,6,.44.44,0,0,1,0,.09,3.93,3.93,0,0,0-1.05-1.15c-.1-.07-.09-.17-.11-.26a11.64,11.64,0,0,0-2.06-4.87,7,7,0,0,0-2.66-2.26C10.59,24,8.7,24.7,7.9,27.27a5.09,5.09,0,0,0-.14.56c0,.05,0,.11-.06.09l0,0A2.08,2.08,0,0,0,7,27.44l-.18-.07m-1.5.28a11.81,11.81,0,0,1,.53-2.56A6,6,0,0,1,9,21.17a4.34,4.34,0,0,1,3.57.14,10.2,10.2,0,0,1,4.15,3.86,19.9,19.9,0,0,1,3,8.44c0,.23,0,.45.07.71a2.27,2.27,0,0,0-.77-.65l-.11,0h0c-.08,0-.07-.13-.08-.21a17.51,17.51,0,0,0-1.2-4.58,12.33,12.33,0,0,0-3.7-5.2,7.08,7.08,0,0,0-1.42-.86,3.6,3.6,0,0,0-4,.51,6.54,6.54,0,0,0-2,3.81c0,.14-.07.18-.17.18a1.24,1.24,0,0,0-.91.38m7.33-7.25a5.8,5.8,0,0,0-2.51-.52c-2,0-3.48,1.34-4.49,3.45a13.18,13.18,0,0,0-1.11,5.29c0,.14,0,.22-.11.27a1.32,1.32,0,0,0-.57.75c-.06.16-.1.34-.16.51v.7l0,.09a2.69,2.69,0,0,0,1.45,2.13L10,35.2a1.39,1.39,0,0,0,.32.12c.61.12,1.07-.34,1.14-1.12a3.15,3.15,0,0,0-.83-2.38.39.39,0,0,1-.14-.27,3.06,3.06,0,0,0-.63-1.66.24.24,0,0,1-.07-.26,3.18,3.18,0,0,1,.52-1.06A1.69,1.69,0,0,1,12.48,28a3,3,0,0,1,.66.4,6.49,6.49,0,0,1,2.14,3.73.18.18,0,0,1,0,.21,2,2,0,0,0-.54,1.07c0,.11-.06.15-.15.15-.68,0-1.06.71-.94,1.73A2.79,2.79,0,0,0,15,37.42l2.47,1.1,2.47,1.1c.66.29,1.2,0,1.37-.82a3.08,3.08,0,0,0-.68-2.45.42.42,0,0,1-.1-.3,18,18,0,0,0-.13-2.18,21.05,21.05,0,0,0-2.87-8.64,11.6,11.6,0,0,0-4.84-4.83" fill="#3c122c" opacity="0.75"/>
              <path d="M5.43,16.07h0c-.07,0-.1.05-.12.14-.08.25-.17.5-.24.77a.23.23,0,0,1-.17.19l-.6.11c-.06,0-.1,0-.1.15a.3.3,0,0,0,.11.23c.18.2.37.41.56.6a.74.74,0,0,1,.2.38c.07.33.16.67.23,1a.38.38,0,0,0,.13.23c.06,0,.1,0,.13-.1s.06-.21.09-.33c.09-.45.25-.8.66-.74.06,0,.12,0,.19,0s.18,0,.18-.16a.49.49,0,0,0-.18-.31c-.16-.18-.33-.35-.5-.52a.74.74,0,0,1-.21-.4c-.06-.32-.14-.64-.22-.95,0-.11,0-.23-.13-.27" fill="#f5df6e" opacity="0.75"/>
              <path d="M5.42,19.87a.38.38,0,0,1-.13-.23c-.07-.33-.16-.67-.23-1a.74.74,0,0,0-.2-.38c-.19-.19-.38-.4-.56-.6a.3.3,0,0,1-.11-.23c0-.11,0-.14.1-.15l.6-.11A.23.23,0,0,0,5.06,17c.07-.27.16-.52.24-.77,0-.09,0-.17.12-.14h0c.09,0,.11.16.13.27.08.31.16.63.22.95a.74.74,0,0,0,.21.4c.17.17.34.34.5.52a.49.49,0,0,1,.18.31c0,.16-.1.14-.18.16s-.13,0-.19,0c-.41-.06-.57.29-.66.74,0,.12-.07.23-.09.33s-.07.11-.13.1m0-4.15h0c-.25-.1-.33.18-.36.27a3,3,0,0,1-.1.32c0,.15-.09.3-.13.46l0,0-.38.07-.21,0c-.22,0-.26.24-.26.4a.89.89,0,0,0,.26.62l.17.19c.13.14.26.29.4.43s0,0,0,.1c.05.23.11.46.17.7l.07.3a.82.82,0,0,0,.35.56l0,0h0A.29.29,0,0,0,5.79,20l0-.09c0-.09,0-.17.07-.27.09-.45.22-.6.46-.56a.79.79,0,0,0,.23,0h0c.08,0,.31-.05.3-.43A1,1,0,0,0,6.62,18l0,0-.51-.53A.17.17,0,0,1,6,17.3c-.06-.3-.13-.6-.2-.89l0-.08c-.08-.34-.2-.53-.38-.61" fill="#3c122c" opacity="0.75"/>
              <path d="M18.72,17.89h0c-.08,0-.1.05-.12.13-.09.26-.17.53-.25.79s-.07.16-.16.17l-.58.1c-.06,0-.12,0-.12.15a.36.36,0,0,0,.12.26c.17.18.33.38.51.54a.91.91,0,0,1,.27.51c.06.3.13.6.2.9,0,.1.05.2.14.24h0c.07,0,.09-.06.12-.14.07-.24.15-.47.21-.73s.13-.25.26-.26l.49-.07a.16.16,0,0,0,.14-.18c0-.12-.07-.18-.13-.24-.19-.21-.38-.43-.58-.62a.61.61,0,0,1-.16-.32c-.07-.33-.15-.65-.22-1,0-.1-.05-.22-.14-.26" fill="#f5df6e" opacity="0.75"/>
              <path d="M18.72,21.68c-.09,0-.11-.14-.14-.24-.07-.3-.14-.6-.2-.9a.91.91,0,0,0-.27-.51c-.18-.16-.34-.36-.51-.54a.36.36,0,0,1-.12-.26c0-.12.06-.13.12-.15l.58-.1c.09,0,.13-.06.16-.17s.16-.53.25-.79c0-.08,0-.17.12-.13h0c.09,0,.11.16.14.26.07.33.15.65.22,1a.61.61,0,0,0,.16.32c.2.19.39.41.58.62.06.06.14.12.13.24a.16.16,0,0,1-.14.18l-.49.07c-.13,0-.22.08-.26.26s-.14.49-.21.73c0,.08-.05.16-.12.14h0m0-4.14h0c-.17-.07-.29,0-.36.24l0,.12c-.07.23-.15.46-.21.7v0a3,3,0,0,0-.45.07l-.15,0c-.07,0-.27.05-.27.39a1,1,0,0,0,.27.65,1.07,1.07,0,0,1,.14.16c.13.14.26.28.4.41s.07.06.1.21c.06.3.14.61.21.91a.78.78,0,0,0,.38.59h0c.24.08.31-.17.34-.26l.06-.19c.05-.18.11-.37.15-.57a.12.12,0,0,1,.12-.1l.32-.05.17,0c.25,0,.3-.25.3-.43a.87.87,0,0,0-.26-.62l-.14-.15c-.15-.16-.31-.34-.47-.5h0v0c-.07-.29-.13-.59-.2-.88l0-.11a.77.77,0,0,0-.38-.6" fill="#3c122c" opacity="0.75"/>
              <path d="M8.42,14.91h0c-.26-.12-.49.09-.49.44a1,1,0,0,0,.48.89h0c.27.11.48-.1.48-.47a1,1,0,0,0-.46-.87" fill="#f5df6e" opacity="0.75"/>
              <path d="M8.4,16.24a1,1,0,0,1-.48-.89c0-.35.23-.56.49-.44h0a1,1,0,0,1,.46.87c0,.37-.21.58-.48.47h0m0-1.69h0c-.41-.18-.75.14-.75.68a1.81,1.81,0,0,0,.22.84,1.21,1.21,0,0,0,.52.53c.41.18.74-.14.74-.71a1.58,1.58,0,0,0-.72-1.34" fill="#3c122c" opacity="0.75"/>
              <path d="M17,21.25h0c-.15-.06-.25,0-.25.25A.57.57,0,0,0,17,22h0c.13.05.25-.06.25-.24a.56.56,0,0,0-.26-.48" fill="#f5df6e" opacity="0.75"/>
              <path d="M17,22a.57.57,0,0,1-.26-.48c0-.22.1-.31.25-.25h0a.56.56,0,0,1,.26.48c0,.18-.12.29-.25.24h0m0-1.08h0c-.3-.12-.51.08-.51.49a1.1,1.1,0,0,0,.52.94c.29.12.52-.1.52-.46a1.12,1.12,0,0,0-.15-.58.88.88,0,0,0-.37-.39" fill="#3c122c" opacity="0.75"/>
              <path d="M12.56,21.31A4.34,4.34,0,0,0,9,21.17a6,6,0,0,0-3.12,3.92,11.81,11.81,0,0,0-.53,2.56,1.24,1.24,0,0,1,.91-.38c.1,0,.15,0,.17-.18a6.54,6.54,0,0,1,2-3.81,3.6,3.6,0,0,1,4-.51,7.08,7.08,0,0,1,1.42.86,12.33,12.33,0,0,1,3.7,5.2,17.51,17.51,0,0,1,1.2,4.58c0,.08,0,.17.08.21h0l.11,0a2.27,2.27,0,0,1,.77.65c0-.26,0-.48-.07-.71a19.9,19.9,0,0,0-3-8.44,10.2,10.2,0,0,0-4.15-3.86" fill="#a0e7c2" opacity="0.75"/>
              <path d="M12.64,23.4A4.31,4.31,0,0,0,10.92,23a3.64,3.64,0,0,0-3.29,2.18,7.77,7.77,0,0,0-.79,2.18l.18.07a2.08,2.08,0,0,1,.64.45l0,0s0,0,.06-.09a5.09,5.09,0,0,1,.14-.56c.8-2.57,2.69-3.23,4.59-2.39a7,7,0,0,1,2.66,2.26A11.64,11.64,0,0,1,17.21,32c0,.09,0,.19.11.26a3.93,3.93,0,0,1,1.05,1.15.44.44,0,0,0,0-.09,16.1,16.1,0,0,0-2-6,8.88,8.88,0,0,0-3.77-3.9" fill="#f5df6e" opacity="0.75"/>
              <path d="M12.48,25.44a5.1,5.1,0,0,0-.5-.19c-1.77-.53-3.25.53-3.78,2.69-.1.41-.08.4.16.83a1,1,0,0,0,.39.43.31.31,0,0,0,.19,0c.1,0,.17,0,.2-.14a4.19,4.19,0,0,1,.65-1.36A2.11,2.11,0,0,1,12.53,27,5.58,5.58,0,0,1,15,29.51a9.29,9.29,0,0,1,.88,2.19c0,.06,0,.16.08.19H16a1.68,1.68,0,0,1,.76.07s.08,0,.06-.06l-.06-.29c-.63-2.91-2.29-5.3-4.25-6.17" fill="#d688b8" opacity="0.75"/>
              <path d="M7,28.38c-.83-.37-1.4,0-1.54,1.11,0,.24-.12.35-.3.32-.39-.07-.69.25-.74.8a2.21,2.21,0,0,0,.69.45l1,.46,2.09.94a.59.59,0,0,0,.9-.48,1.86,1.86,0,0,0-.3-1.47,1,1,0,0,1-.16-.24.23.23,0,0,1-.14,0,.75.75,0,0,1-.34-.39,4.88,4.88,0,0,0-.31-.55,2.38,2.38,0,0,0-.86-.89l0,0" fill="#fefefe" opacity="0.75"/>
              <path d="M16.94,33a1.35,1.35,0,0,0-.52-.11c-.63,0-1,.44-1.11,1.28,0,.37-.13.44-.41.36s-.5.05-.59.39a.64.64,0,0,0,.4.41l0,0,2,.88,1.54.67c.73.31,1-.58.81-1.3a1.92,1.92,0,0,0-.51-.94.31.31,0,0,1-.13,0,.85.85,0,0,1-.34-.41A2.65,2.65,0,0,0,16.94,33" fill="#fefefe" opacity="0.75"/>
              <path d="M9.15,30.23a.41.41,0,0,0-.44,0,1,1,0,0,0,.16.24A1.86,1.86,0,0,1,9.17,32a.59.59,0,0,1-.9.48l-2.09-.94-1-.46a2.21,2.21,0,0,1-.69-.45,1.46,1.46,0,0,0,.64,1.46l.65.3.65.29,3.71,1.64c.39.18.68-.09.71-.61a1.6,1.6,0,0,0-.59-1.26.75.75,0,0,1-.39-.83,1.48,1.48,0,0,0-.34-1.1.87.87,0,0,0-.33-.27" fill="#e0bcfb" opacity="0.75"/>
              <path d="M19,34.61a.46.46,0,0,0-.45,0,1.92,1.92,0,0,1,.51.94c.16.72-.08,1.61-.81,1.3l-1.54-.67-2-.88,0,0a.64.64,0,0,1-.4-.41A1.46,1.46,0,0,0,15,36.47l5,2.23a.44.44,0,0,0,.39,0,.84.84,0,0,0,.29-.88,1.44,1.44,0,0,0-.6-1,.73.73,0,0,1-.36-.73,1.51,1.51,0,0,0-.32-1.15.83.83,0,0,0-.35-.31" fill="#e0bcfb" opacity="0.75"/>
              <polyline points="6.4 35 5.79 34.73 5.25 37.96 4.72 34.25 4.11 33.98 4.83 38.45 5.66 38.82 6.4 35" fill="#3c122c" opacity="0.75"/>
              <path d="M8.15,36.82,7,36.29v.62l.59.26V39L6.8,38.7v.63l2.09.93v-.63l-.74-.33V36.82m0-1.52L7.55,35V36l.6.27v-1" fill="#3c122c" opacity="0.75"/>
              <path d="M10.44,37l-.6-.27v.89l-.59-.26v.62l.59.26v1.44a1.63,1.63,0,0,0,.18.91,1.46,1.46,0,0,0,.69.53l.5.22v-.62l-.45-.2a.52.52,0,0,1-.25-.2.67.67,0,0,1-.07-.33V38.46l.78.35v-.63l-.78-.34V37" fill="#3c122c" opacity="0.75"/>
              <path d="M12.71,41.48a.53.53,0,0,1-.25-.24.76.76,0,0,1-.09-.38c0-.18.05-.3.14-.33s.24,0,.46.09l.24.1v.06a1.08,1.08,0,0,1-.13.62.27.27,0,0,1-.37.08m.09-2.67a2.14,2.14,0,0,0-.43-.14,1.88,1.88,0,0,0-.41,0v.7a1.07,1.07,0,0,1,.43,0,1.29,1.29,0,0,1,.41.1.7.7,0,0,1,.31.24.6.6,0,0,1,.1.35v.13L12.8,40a1,1,0,0,0-.8-.1q-.27.15-.27.69a1.77,1.77,0,0,0,.22.88,1.32,1.32,0,0,0,.61.56.62.62,0,0,0,.37.05.42.42,0,0,0,.28-.19v.34l.6.27V40.67a2.52,2.52,0,0,0-.23-1.2,1.63,1.63,0,0,0-.78-.66" fill="#3c122c" opacity="0.75"/>
              <path d="M15.46,38.85l-1.21-.53v.62l.61.27v2.41A2.43,2.43,0,0,0,15,42.7a1.18,1.18,0,0,0,.61.57l.65.29v-.63l-.48-.21a.51.51,0,0,1-.28-.28,1.36,1.36,0,0,1-.09-.56v-3" fill="#3c122c" opacity="0.75"/>
              <path d="M18.22,41.3,17,40.77v.63l.58.26v1.86l-.75-.33v.62l2.09.93v-.62l-.74-.33V41.3m0-1.52-.6-.27v1l.6.27v-.95" fill="#3c122c" opacity="0.75"/>
              <polyline points="20.06 40.9 19.46 40.63 19.45 44.96 20.05 45.23 20.06 44.04 20.26 43.87 20.89 45.6 21.55 45.9 20.63 43.54 21.5 42.76 20.78 42.44 20.06 43.17 20.06 40.9" fill="#3c122c" opacity="0.75"/>
            </g>
          </g>
        </g>
      </g>
      <g>
        <polygon points="24.2 19.47 1.41 9.18 25.96 0.24 48.75 10.53 24.2 19.47" fill="#92b9b3"/>
        <g style="isolation: isolate">
          <g clip-path="url(#clip-path-2)">
            <g>
              <path d="M30.55,10.53c-.18-.16-.12-.31.16-.44s.28-.2.05-.34c-.52-.33-.56-.67-.08-1a1.6,1.6,0,0,1,.47-.24,4.72,4.72,0,0,1,1.74-.22,1.6,1.6,0,0,0,.56,0,.34.34,0,0,0,.12-.06.51.51,0,0,1,.31-.25,1.59,1.59,0,0,1,.49-.09,1.79,1.79,0,0,1,1.06.2,1,1,0,0,0,.79,0,2.4,2.4,0,0,1,1.19,0c.34.1.51.28.41.44a.53.53,0,0,1-.29.21l-5.38,1.95a1.88,1.88,0,0,1-1.6-.16M20,14.42c-.35-.2-.37-.46,0-.65.16-.09.16-.17,0-.26-.66-.42-.53-.86.37-1.18l0,0a4.63,4.63,0,0,1,1.29-.17c.21,0,.42,0,.63,0a1.46,1.46,0,0,0,.54-.05L23,12a.49.49,0,0,1,.3-.25,2.25,2.25,0,0,1,1.49.09,1.08,1.08,0,0,0,.89.06A2.26,2.26,0,0,1,27,12c.35.18.33.42-.09.57l-4,1.46-.7.25-.71.26A2,2,0,0,1,20,14.42m2.24-2.75a1.73,1.73,0,0,1-.6.06c-.5,0-.5,0-.72-.18-1.15-1-.78-2.11.93-2.88a4.55,4.55,0,0,1,.51-.21A14.3,14.3,0,0,1,30,8.17l.26.07c.08,0,0,0,0,0a2.54,2.54,0,0,0-.62.38s0,0-.05,0a.41.41,0,0,1-.19,0,13.38,13.38,0,0,0-2.24-.23,10.11,10.11,0,0,0-3.6.5c-1.1.39-1.72,1-1.57,1.69a1.44,1.44,0,0,0,.48.78c.07.06,0,.1,0,.15a.69.69,0,0,1-.17.1m-2.75.43a3.19,3.19,0,0,1-1-1.13c-.4-.87-.2-1.7.91-2.46A6.94,6.94,0,0,1,21,7.72,16,16,0,0,1,26.67,7a19.92,19.92,0,0,1,5.82.89l.06,0a6.65,6.65,0,0,0-1.62.2.46.46,0,0,1-.27,0,16.18,16.18,0,0,0-5.05-.47A13.16,13.16,0,0,0,22,8.27c-2,.75-3,2-1.75,3.23a3.79,3.79,0,0,0,.29.26s.06,0,0,.06h-.05a4.27,4.27,0,0,0-.8.19l-.19.08m-.93.89a6.25,6.25,0,0,1-1.44-1.11A2.2,2.2,0,0,1,16.67,9a5.6,5.6,0,0,1,2.8-1.87,19,19,0,0,1,5.91-1,25.77,25.77,0,0,1,8.3,1.13l.57.19a4.77,4.77,0,0,0-1.06.2l-.1,0h0a.25.25,0,0,1-.21,0,21,21,0,0,0-4.19-.83,21.08,21.08,0,0,0-6.53.3,13.39,13.39,0,0,0-1.69.48C18.85,8.18,18,9,17.78,9.91s.28,1.59,1.2,2.32c.08.06.08.1,0,.15a.81.81,0,0,0-.41.61m.33-6.26a9.15,9.15,0,0,0-2.27,1.18C15.1,9,15,10.2,15.71,11.42a6.94,6.94,0,0,0,3,2.3c.1,0,.14.08.1.14a.47.47,0,0,0,.11.55,3,3,0,0,0,.25.25l.5.23h.09a4.5,4.5,0,0,0,2.63-.09l5.15-1.88a2,2,0,0,0,.33-.14c.55-.28.56-.68.05-1a4,4,0,0,0-2.33-.32.61.61,0,0,1-.3,0,4,4,0,0,0-1.66-.2c-.13,0-.19,0-.24,0a1.17,1.17,0,0,1-.37-.62c-.08-.55.26-1,1.19-1.35A4.44,4.44,0,0,1,25,9.05a10.22,10.22,0,0,1,4.3,0c.1,0,.11.05.12.1a.73.73,0,0,0,.36.63c.06.05.05.08,0,.13-.5.37-.29.8.53,1.06a4.38,4.38,0,0,0,2.61,0l2.66-1,2.65-1c.71-.26.88-.65.45-1a3.55,3.55,0,0,0-2.27-.43.56.56,0,0,1-.3,0A15.14,15.14,0,0,0,34.39,7,26.83,26.83,0,0,0,26,5.7a21.27,21.27,0,0,0-7.12,1" fill="#3c122c" opacity="0.75"/>
              <path d="M10.32,9.21h0c-.08,0,0,.07,0,.11l.38.38a.09.09,0,0,1,0,.15c-.12.12-.24.24-.37.35s0,.07,0,.11a.52.52,0,0,0,.25,0l.85-.1a1,1,0,0,1,.42,0l.9.19a.57.57,0,0,0,.26,0c.05,0,.06-.06,0-.1l-.17-.16c-.26-.19-.38-.39,0-.59a.42.42,0,0,0,.12-.1c0-.05.14-.11,0-.16a.69.69,0,0,0-.35,0l-.75.1a1.13,1.13,0,0,1-.45,0l-.85-.19a.48.48,0,0,0-.29,0" fill="#f5df6e" opacity="0.75"/>
              <path d="M13,10.44a.57.57,0,0,1-.26,0l-.9-.19a1,1,0,0,0-.42,0l-.85.1a.52.52,0,0,1-.25,0c-.07,0-.06-.07,0-.11s.25-.23.37-.35a.08.08,0,0,0,0-.15l-.38-.38s-.08-.08,0-.11h0a.48.48,0,0,1,.29,0l.85.19a1.13,1.13,0,0,0,.45,0l.75-.1a.69.69,0,0,1,.35,0c.12.05,0,.11,0,.16a.42.42,0,0,1-.12.1c-.35.2-.23.4,0,.59l.17.16s0,.07,0,.1m-3-1.35h0c-.26.11-.12.24-.08.28l.16.16.22.22v0l-.24.23-.13.12c-.13.13,0,.22.1.27a1.23,1.23,0,0,0,.63.06l.26,0,.62-.08s0,0,.1,0l.63.14.28.06a1.32,1.32,0,0,0,.66,0h0l0,0c.13-.07.16-.16.07-.25l0,0a.89.89,0,0,0-.14-.13c-.25-.19-.26-.31-.05-.43a.7.7,0,0,0,.15-.12l0,0,0,0c.05,0,.19-.17-.09-.29a1.36,1.36,0,0,0-.7-.05h0l-.77.11a.2.2,0,0,1-.12,0l-.79-.18h-.08a1.34,1.34,0,0,0-.72,0" fill="#3c122c" opacity="0.75"/>
              <path d="M21.67,2.69h0c-.09,0,0,.07,0,.11s.24.26.38.39.06.09,0,.14-.24.23-.36.34-.08.07,0,.11a.53.53,0,0,0,.28,0c.26,0,.53,0,.77-.1a1.35,1.35,0,0,1,.57,0l.8.19a.53.53,0,0,0,.28,0h0c.07,0,0-.07,0-.11A4,4,0,0,0,24,3.45c-.1-.08-.08-.15,0-.22l.32-.29c.05,0,.07-.09,0-.13a.53.53,0,0,0-.28,0l-.88.11a.77.77,0,0,1-.34,0L22,2.7a.48.48,0,0,0-.29,0" fill="#f5df6e" opacity="0.75"/>
              <path d="M24.39,3.91a.53.53,0,0,1-.28,0l-.8-.19a1.35,1.35,0,0,0-.57,0c-.24,0-.51.07-.77.1a.53.53,0,0,1-.28,0c-.09,0,0-.07,0-.11s.23-.23.36-.34.06-.09,0-.14-.26-.26-.38-.39-.1-.08,0-.11h0a.48.48,0,0,1,.29,0l.88.19a.77.77,0,0,0,.34,0l.88-.11a.53.53,0,0,1,.28,0c.09,0,.07.08,0,.13L24,3.23c-.09.07-.11.14,0,.22a4,4,0,0,1,.36.35s.08.07,0,.11h0m-3-1.34h0q-.27.1-.09.27l.05.06.34.34h0l-.29.26-.08.09c-.05,0-.17.16.07.27a1.26,1.26,0,0,0,.67.07l.22,0c.2,0,.4,0,.6-.08a.46.46,0,0,1,.22,0l.82.18a1.25,1.25,0,0,0,.7,0h0c.24-.1.12-.22.08-.26l-.09-.09a2.7,2.7,0,0,0-.3-.27s0-.05,0-.1a1.9,1.9,0,0,0,.21-.19L24.7,3c.16-.15,0-.25-.08-.3A1.28,1.28,0,0,0,24,2.65l-.21,0-.72.08h0l-.79-.18-.09,0a1.32,1.32,0,0,0-.72,0" fill="#3c122c" opacity="0.75"/>
              <path d="M11.75,7.23h0c-.28.1-.31.29-.05.41a1.62,1.62,0,0,0,1,0h0c.29-.1.3-.28,0-.4a1.57,1.57,0,0,0-1,0" fill="#f5df6e" opacity="0.75"/>
              <path d="M12.69,7.68a1.62,1.62,0,0,1-1,0c-.26-.12-.23-.31.05-.41h0a1.57,1.57,0,0,1,1,0c.26.12.25.3,0,.4h0m-1.2-.56h0c-.44.16-.48.45-.09.63a2.15,2.15,0,0,0,.77.15,2.24,2.24,0,0,0,.77-.11c.45-.16.47-.44.06-.62a2.36,2.36,0,0,0-1.51,0" fill="#3c122c" opacity="0.75"/>
              <path d="M22.81,4.67h0c-.16.06-.17.14,0,.21a.83.83,0,0,0,.54,0h0c.14-.06.15-.16,0-.22a.86.86,0,0,0-.55,0" fill="#f5df6e" opacity="0.75"/>
              <path d="M23.33,4.9a.83.83,0,0,1-.54,0c-.16-.07-.15-.15,0-.21h0a.86.86,0,0,1,.55,0c.12.06.11.16,0,.22h0m-.78-.35h0c-.31.12-.32.29,0,.43a1.7,1.7,0,0,0,1.07,0c.3-.11.32-.3.06-.42a1.31,1.31,0,0,0-.53-.11,1.59,1.59,0,0,0-.56.07" fill="#3c122c" opacity="0.75"/>
              <path d="M19.47,7.08A5.6,5.6,0,0,0,16.67,9a2.2,2.2,0,0,0,.46,2.93A6.25,6.25,0,0,0,18.57,13a.81.81,0,0,1,.41-.61c.08-.05.08-.09,0-.15-.92-.73-1.38-1.5-1.2-2.32s1.07-1.73,2.67-2.31a13.39,13.39,0,0,1,1.69-.48,21.08,21.08,0,0,1,6.53-.3,21,21,0,0,1,4.19.83.25.25,0,0,0,.21,0h0l.1,0a4.77,4.77,0,0,1,1.06-.2l-.57-.19a25.77,25.77,0,0,0-8.3-1.13,19,19,0,0,0-5.91,1" fill="#a0e7c2" opacity="0.75"/>
              <path d="M21,7.72a6.94,6.94,0,0,0-1.59.79c-1.11.76-1.31,1.59-.91,2.46a3.19,3.19,0,0,0,1,1.13l.19-.08a4.27,4.27,0,0,1,.8-.19h.05s0,0,0-.06a3.79,3.79,0,0,1-.29-.26C19,10.24,19.94,9,22,8.27a13.16,13.16,0,0,1,3.63-.69,16.18,16.18,0,0,1,5.05.47.46.46,0,0,0,.27,0,6.65,6.65,0,0,1,1.62-.2l-.06,0A19.92,19.92,0,0,0,26.67,7,16,16,0,0,0,21,7.72" fill="#f5df6e" opacity="0.75"/>
              <path d="M22.37,8.46a4.55,4.55,0,0,0-.51.21c-1.71.77-2.08,1.91-.93,2.88.22.19.22.18.72.18a1.73,1.73,0,0,0,.6-.06.69.69,0,0,0,.17-.1c.07-.05.12-.09,0-.15a1.44,1.44,0,0,1-.48-.78c-.15-.69.47-1.3,1.57-1.69a10.11,10.11,0,0,1,3.6-.5,13.38,13.38,0,0,1,2.24.23.41.41,0,0,0,.19,0s0,0,.05,0a2.54,2.54,0,0,1,.62-.38s.09,0,0,0L30,8.17a14.3,14.3,0,0,0-7.64.29" fill="#d688b8" opacity="0.75"/>
              <path d="M20.36,12.33c-.9.32-1,.76-.37,1.18.16.09.16.17,0,.26-.35.19-.33.45,0,.65a3.21,3.21,0,0,0,.84-.22L22,13.79,24.23,13c.49-.18.61-.41.34-.64a2,2,0,0,0-1.29-.3A1.4,1.4,0,0,1,23,12l-.13.07a1.46,1.46,0,0,1-.54.05c-.21,0-.42,0-.63,0a4.63,4.63,0,0,0-1.29.17l0,0" fill="#fefefe" opacity="0.75"/>
              <path d="M31.15,8.51a1.6,1.6,0,0,0-.47.24c-.48.33-.44.67.08,1,.23.14.23.22-.05.34s-.34.28-.16.44a1.06,1.06,0,0,0,.59-.08l.06,0,2.11-.76,1.63-.6c.79-.3.33-.71-.31-.86a2.89,2.89,0,0,0-1.06,0,.34.34,0,0,1-.12.06,1.6,1.6,0,0,1-.56,0,4.72,4.72,0,0,0-1.74.22" fill="#fefefe" opacity="0.75"/>
              <path d="M23.29,11.78A.49.49,0,0,0,23,12a1.4,1.4,0,0,0,.29,0,2,2,0,0,1,1.29.3c.27.23.15.46-.34.64L22,13.79l-1.13.41a3.21,3.21,0,0,1-.84.22,2,2,0,0,0,1.53.14l.71-.26.7-.25,4-1.46c.42-.15.44-.39.09-.57a2.26,2.26,0,0,0-1.35-.09,1.08,1.08,0,0,1-.89-.06,2.25,2.25,0,0,0-1.49-.09" fill="#e0bcfb" opacity="0.75"/>
              <path d="M33.88,7.93a.51.51,0,0,0-.31.25,2.89,2.89,0,0,1,1.06,0c.64.15,1.1.56.31.86l-1.63.6-2.11.76-.06,0a1.06,1.06,0,0,1-.59.08,1.88,1.88,0,0,0,1.6.16l5.38-1.95a.53.53,0,0,0,.29-.21c.1-.16-.07-.34-.41-.44a2.4,2.4,0,0,0-1.19,0,1,1,0,0,1-.79,0,1.79,1.79,0,0,0-1.06-.2,1.59,1.59,0,0,0-.49.09" fill="#e0bcfb" opacity="0.75"/>
              <polyline points="24.64 14.79 23.98 15.03 25.89 16.36 22.83 15.45 22.18 15.69 25.93 16.75 26.83 16.42 24.64 14.79" fill="#3c122c" opacity="0.75"/>
              <path d="M27.26,14.45,26,14.91l.45.2.62-.23,1.34.6-.8.3L28,16l2.25-.82-.45-.2-.8.29-1.78-.8M26.17,14l-.64.24.68.31.65-.24L26.17,14" fill="#3c122c" opacity="0.75"/>
              <path d="M29.09,13.26l-.65.24.64.28-.63.23.45.2.63-.22,1,.46a2,2,0,0,0,.79.2,2.89,2.89,0,0,0,.91-.2l.53-.2-.44-.2-.5.18a1.09,1.09,0,0,1-.33.07,1.11,1.11,0,0,1-.29-.07l-1.06-.48.84-.3-.45-.21-.83.31-.64-.29" fill="#3c122c" opacity="0.75"/>
              <path d="M34.06,13.51a.85.85,0,0,1-.36.05.77.77,0,0,1-.34-.07c-.14-.06-.18-.12-.14-.18a1,1,0,0,1,.42-.22l.25-.09h0c.21.1.33.19.35.28s-.05.16-.22.22m-1.85-.91a2.91,2.91,0,0,0-.43.19,1.41,1.41,0,0,0-.31.21l.49.22a1.68,1.68,0,0,1,.29-.24,2.36,2.36,0,0,1,.39-.19,1.29,1.29,0,0,1,.41-.08.72.72,0,0,1,.33,0l.09.05L33,13c-.39.14-.62.27-.68.4s0,.24.3.36a2,2,0,0,0,.79.17,2.51,2.51,0,0,0,.86-.15.87.87,0,0,0,.32-.18.21.21,0,0,0,.07-.21l.25.11.64-.23-1.27-.58a2.81,2.81,0,0,0-1-.27,3,3,0,0,0-1.06.21" fill="#3c122c" opacity="0.75"/>
              <path d="M34.25,11.19l-1.3.47.45.21.65-.24,1.73.78a2.66,2.66,0,0,0,.91.25,2.1,2.1,0,0,0,.87-.15l.7-.25-.45-.2-.51.19a1,1,0,0,1-.42.06,1.39,1.39,0,0,1-.46-.14l-2.17-1" fill="#3c122c" opacity="0.75"/>
              <path d="M38.09,10.5,36.82,11l.45.2.62-.23,1.34.6-.8.29.45.21,2.24-.82-.45-.2-.8.29-1.78-.81M37,10l-.64.24.68.3.64-.23L37,10" fill="#3c122c" opacity="0.75"/>
              <polyline points="39.2 9.39 38.55 9.63 41.65 11.03 42.3 10.79 41.45 10.41 41.47 10.24 43.19 10.46 43.9 10.21 41.52 9.93 41.62 9.22 40.84 9.5 40.83 10.13 39.2 9.39" fill="#3c122c" opacity="0.75"/>
            </g>
          </g>
        </g>
      </g>
      <g>
        <polygon points="48.75 10.53 48.59 40.83 24.04 49.76 24.2 19.47 48.75 10.53" fill="#96bdb7"/>
        <g style="isolation: isolate">
          <g clip-path="url(#clip-path-3)">
            <g>
              <path d="M38.31,33.9A1.26,1.26,0,0,1,39,33a.74.74,0,0,0,.45-.7,3.12,3.12,0,0,1,1.2-2.17,2.16,2.16,0,0,1,.56-.32,1.13,1.13,0,0,1,1.23.26.33.33,0,0,0,.37.11.41.41,0,0,0,.14-.08,1.17,1.17,0,0,1,.49-.4.46.46,0,0,1,.38,0c.28.11.39.41.33.85s.1.47.39.42.57.12.64.5a1.42,1.42,0,0,1-.31,1.1,1,1,0,0,1-.42.32l-5.4,2c-.52.19-.85-.3-.69-1m-10.65,4a1.89,1.89,0,0,1,.8-1.4.69.69,0,0,0,.33-.56,2.74,2.74,0,0,1,1.66-2.35h0a1,1,0,0,1,.94.15,1.44,1.44,0,0,1,.33.28.32.32,0,0,0,.36.11l.16-.09a1.06,1.06,0,0,1,.47-.4.52.52,0,0,1,.35,0c.29.1.4.38.37.79s.06.56.41.5.66.26.64.74a1.34,1.34,0,0,1-.76,1.18l-4,1.46-.7.26-.71.25c-.47.16-.8-.29-.68-.9m4.66-4.94a.43.43,0,0,1-.42-.11c-.26-.21-.27-.19-.17-.68a8.64,8.64,0,0,1,4.09-5.74,4.28,4.28,0,0,1,.55-.23c2.11-.77,3.9.18,4.57,2.5a1.55,1.55,0,0,0,.07.23c0,.08,0,.1-.07.12a3.14,3.14,0,0,0-.82.56s0,0-.07,0-.06-.07-.08-.12A3.47,3.47,0,0,0,39,28.1a2.53,2.53,0,0,0-2.61-.41,5.81,5.81,0,0,0-3,3,8.21,8.21,0,0,0-.71,1.86.47.47,0,0,1-.21.3,1,1,0,0,1-.21.13m-2.06-.2a14.39,14.39,0,0,1,.86-2.8,11.56,11.56,0,0,1,3.56-4.85,7.67,7.67,0,0,1,1.86-1,3.92,3.92,0,0,1,4.06.69A6.55,6.55,0,0,1,42.72,29a.51.51,0,0,1,0,.09,1.63,1.63,0,0,0-1.14-.25c-.1,0-.1-.09-.11-.16a4.16,4.16,0,0,0-2.22-3.05,3.77,3.77,0,0,0-2.86,0,8.87,8.87,0,0,0-5,6.14c-.06.22-.11.44-.16.66,0,0,0,.12-.06.13h0a1.41,1.41,0,0,0-.69.09.88.88,0,0,0-.2.09m-1.62,1.51a17.78,17.78,0,0,1,4-9.36,9.59,9.59,0,0,1,3.86-2.81,4.94,4.94,0,0,1,4.48.34c1.79,1.15,2.8,3.13,3.19,5.77,0,.2,0,.4.08.63a1.27,1.27,0,0,0-.84,0l-.11,0h0c-.08,0-.07-.07-.08-.14a8,8,0,0,0-1.29-3.48,4.25,4.25,0,0,0-4-2,5.65,5.65,0,0,0-1.53.33A9.34,9.34,0,0,0,32,27.39a15.18,15.18,0,0,0-2.21,5.42.49.49,0,0,1-.18.31,3.71,3.71,0,0,0-1,1.13m8-13.16a10.29,10.29,0,0,0-2.72,1.57A15.87,15.87,0,0,0,29,29.74a18.79,18.79,0,0,0-1.21,6.1.53.53,0,0,1-.12.35,3.67,3.67,0,0,0-.63,1.21c-.06.2-.11.42-.17.63v.68l0,.06c.23.89.75,1.17,1.56.88l5.18-1.89a2.17,2.17,0,0,0,.35-.15,2.74,2.74,0,0,0,1.23-2c.09-.9-.25-1.52-.89-1.64-.08,0-.13,0-.14-.15a1.2,1.2,0,0,0-.68-1.09c-.09,0-.11-.08-.07-.21A7,7,0,0,1,34,31a4.75,4.75,0,0,1,2.34-2.4,2.82,2.82,0,0,1,.7-.15c1.19-.09,1.89.67,2.31,1.88a.28.28,0,0,1,0,.24,4.55,4.55,0,0,0-.59,1.49.38.38,0,0,1-.16.27,2.78,2.78,0,0,0-1,2.48,1.07,1.07,0,0,0,1.49,1l2.67-1,2.66-1a2.56,2.56,0,0,0,1.48-1.93c.18-.89-.1-1.63-.72-1.84-.08,0-.11-.09-.11-.21a14.7,14.7,0,0,0-.13-2c-.37-2.7-1.33-4.8-3.08-6.06a5.29,5.29,0,0,0-5.21-.72" fill="#3c122c" opacity="0.75"/>
              <path d="M28.77,22.86h0c-.08,0-.11.14-.14.24-.09.32-.18.63-.26.95a.58.58,0,0,1-.19.33l-.64.6a.3.3,0,0,0-.11.23c0,.1.05.12.12.14a5.79,5.79,0,0,0,.6.12c.12,0,.18.08.21.21s.17.52.26.78c0,.07.05.14.13.12a.33.33,0,0,0,.14-.2c0-.13.07-.27.1-.4a1.78,1.78,0,0,1,.71-1.27,1.57,1.57,0,0,0,.21-.17c.08-.09.2-.16.19-.32s-.1-.13-.18-.15l-.54-.1a.24.24,0,0,1-.23-.21c-.07-.26-.15-.51-.23-.75,0-.08-.05-.18-.15-.15" fill="#f5df6e" opacity="0.75"/>
              <path d="M28.75,26.58c-.08,0-.11,0-.13-.12-.09-.26-.18-.52-.26-.78s-.09-.2-.21-.21a5.79,5.79,0,0,1-.6-.12c-.07,0-.12,0-.12-.14a.3.3,0,0,1,.11-.23l.64-.6a.58.58,0,0,0,.19-.33c.08-.32.17-.63.26-.95,0-.1.06-.2.14-.24h0c.1,0,.12.07.15.15.08.24.16.49.23.75a.24.24,0,0,0,.23.21l.54.1c.08,0,.18,0,.18.15s-.11.23-.19.32a1.57,1.57,0,0,1-.21.17A1.78,1.78,0,0,0,29,26c0,.13-.07.27-.1.4a.33.33,0,0,1-.14.2m0-4.07h0a.8.8,0,0,0-.38.56c0,.14-.07.27-.12.4s-.1.37-.14.56l0,.07-.41.38-.23.22a.81.81,0,0,0-.28.6c0,.22.09.36.28.39l.18.05.44.08s0,0,.05.06.11.36.17.55l.08.23c.08.22.2.31.38.26h0l0,0a.85.85,0,0,0,.35-.5l0-.11a3.18,3.18,0,0,0,.08-.33,1.26,1.26,0,0,1,.5-.93,1.32,1.32,0,0,0,.25-.21l0,0,0,0a.88.88,0,0,0,.33-.66.37.37,0,0,0-.33-.4h0c-.18,0-.36-.07-.55-.09a.06.06,0,0,1-.06-.05c-.06-.25-.14-.48-.21-.71l0-.07c-.09-.26-.23-.34-.41-.28" fill="#3c122c" opacity="0.75"/>
              <path d="M43.14,13.63h0a.3.3,0,0,0-.14.24l-.27,1a.53.53,0,0,1-.17.3c-.21.18-.42.38-.63.58a.32.32,0,0,0-.13.24c0,.12.06.14.13.15a3.35,3.35,0,0,0,.55.11c.16,0,.24.11.28.27s.15.48.22.72c0,.07.05.16.15.12h0a.32.32,0,0,0,.13-.24c.08-.29.17-.58.23-.88a.85.85,0,0,1,.29-.48l.53-.47a.4.4,0,0,0,.15-.29c0-.12-.08-.11-.14-.13s-.41-.1-.62-.12-.15-.08-.18-.18l-.24-.77c0-.08,0-.18-.14-.15" fill="#f5df6e" opacity="0.75"/>
              <path d="M43.12,17.34c-.1,0-.12-.05-.15-.12-.07-.24-.15-.47-.22-.72s-.12-.27-.28-.27a3.35,3.35,0,0,1-.55-.11c-.07,0-.13,0-.13-.15a.32.32,0,0,1,.13-.24c.21-.2.42-.4.63-.58a.53.53,0,0,0,.17-.3l.27-1a.3.3,0,0,1,.14-.24h0c.1,0,.11.07.14.15l.24.77c0,.1.07.16.18.18s.41.08.62.12.14,0,.14.13a.4.4,0,0,1-.15.29l-.53.47a.85.85,0,0,0-.29.48c-.06.3-.15.59-.23.88a.32.32,0,0,1-.13.24h0m0-4.05h0a.76.76,0,0,0-.4.54l0,.14c-.08.29-.16.57-.23.86v0c-.17.14-.33.29-.49.44l-.15.15a.81.81,0,0,0-.3.61c0,.23.09.37.29.41l.15,0a2,2,0,0,0,.43.08s.07,0,.11.12.14.49.22.72.22.33.41.26h0a.81.81,0,0,0,.37-.54l.06-.23c.07-.23.13-.46.18-.7a.32.32,0,0,1,.12-.19c.12-.1.24-.2.35-.31l.19-.16a.91.91,0,0,0,.32-.67c0-.33-.21-.37-.28-.38l-.15,0-.51-.11h0c-.07-.24-.14-.47-.22-.7l0-.08c-.07-.27-.21-.35-.4-.28" fill="#3c122c" opacity="0.75"/>
              <path d="M32,19.25h0a1,1,0,0,0-.54.85c0,.36.24.57.52.47h0a1,1,0,0,0,.52-.85c0-.36-.23-.57-.5-.47" fill="#f5df6e" opacity="0.75"/>
              <path d="M32,20.57c-.28.1-.52-.11-.52-.47a1,1,0,0,1,.54-.85h0c.27-.1.5.11.5.47a1,1,0,0,1-.52.85h0m0-1.67h0a1.48,1.48,0,0,0-.82,1.29.83.83,0,0,0,.24.63.56.56,0,0,0,.56.09,1.47,1.47,0,0,0,.81-1.31c0-.54-.36-.86-.78-.71" fill="#3c122c" opacity="0.75"/>
              <path d="M41.31,18.3h0a.44.44,0,0,0-.27.45c0,.19.12.3.28.25h0a.54.54,0,0,0,.27-.44c0-.18-.13-.31-.28-.26" fill="#f5df6e" opacity="0.75"/>
              <path d="M41.31,19c-.16,0-.28-.06-.28-.25a.44.44,0,0,1,.27-.45h0c.15-.05.28.08.28.26a.54.54,0,0,1-.27.44h0m0-1.05h0a1,1,0,0,0-.55.9c0,.38.25.6.56.49a1,1,0,0,0,.56-.88.57.57,0,0,0-.16-.44.39.39,0,0,0-.4-.07" fill="#3c122c" opacity="0.75"/>
              <path d="M36.46,22.08a9.59,9.59,0,0,0-3.86,2.81,17.78,17.78,0,0,0-4,9.36,3.71,3.71,0,0,1,1-1.13.49.49,0,0,0,.18-.31A15.18,15.18,0,0,1,32,27.39a9.34,9.34,0,0,1,4.35-3.82,5.65,5.65,0,0,1,1.53-.33,4.25,4.25,0,0,1,4,2,8,8,0,0,1,1.29,3.48c0,.07,0,.17.08.14h0l.11,0a1.27,1.27,0,0,1,.84,0c0-.23-.05-.43-.08-.63-.39-2.64-1.4-4.62-3.19-5.77a4.94,4.94,0,0,0-4.48-.34" fill="#a0e7c2" opacity="0.75"/>
              <path d="M36.54,24.05a7.67,7.67,0,0,0-1.86,1,11.56,11.56,0,0,0-3.56,4.85,14.39,14.39,0,0,0-.86,2.8.88.88,0,0,1,.2-.09,1.41,1.41,0,0,1,.69-.09h0s0-.08.06-.13c.05-.22.1-.44.16-.66a8.87,8.87,0,0,1,5-6.14,3.77,3.77,0,0,1,2.86,0,4.16,4.16,0,0,1,2.22,3.05c0,.07,0,.18.11.16a1.63,1.63,0,0,1,1.14.25.51.51,0,0,0,0-.09,6.55,6.55,0,0,0-2.12-4.26,3.92,3.92,0,0,0-4.06-.69" fill="#f5df6e" opacity="0.75"/>
              <path d="M36.37,26.18a4.28,4.28,0,0,0-.55.23,8.64,8.64,0,0,0-4.09,5.74c-.1.49-.09.47.17.68a.43.43,0,0,0,.42.11,1,1,0,0,0,.21-.13.47.47,0,0,0,.21-.3,8.21,8.21,0,0,1,.71-1.86,5.81,5.81,0,0,1,3-3A2.53,2.53,0,0,1,39,28.1,3.47,3.47,0,0,1,40,29.51s0,.14.08.12,0,0,.07,0a3.14,3.14,0,0,1,.82-.56s.09,0,.07-.12a1.55,1.55,0,0,1-.07-.23c-.67-2.32-2.46-3.27-4.57-2.5" fill="#d688b8" opacity="0.75"/>
              <path d="M30.45,33.57a2.74,2.74,0,0,0-1.66,2.35.69.69,0,0,1-.33.56,1.89,1.89,0,0,0-.8,1.4,1.55,1.55,0,0,0,.74-.13l1.13-.41,2.26-.83a1.58,1.58,0,0,0,1-1.21,1,1,0,0,0-.33-1.18s-.13,0-.16-.11l-.16.09a.32.32,0,0,1-.36-.11,1.44,1.44,0,0,0-.33-.28,1,1,0,0,0-.94-.15h0" fill="#fefefe" opacity="0.75"/>
              <path d="M41.16,29.85a2.16,2.16,0,0,0-.56.32,3.12,3.12,0,0,0-1.2,2.17A.74.74,0,0,1,39,33a1.26,1.26,0,0,0-.64.86c.1.18.28.13.43.08l.06,0c.7-.24,1.41-.49,2.11-.75s1.1-.4,1.65-.62a1.72,1.72,0,0,0,.89-1.94.67.67,0,0,0-.55-.5.41.41,0,0,1-.14.08.33.33,0,0,1-.37-.11,1.13,1.13,0,0,0-1.23-.26" fill="#fefefe" opacity="0.75"/>
              <path d="M32.75,33.61a1.06,1.06,0,0,0-.47.4c0,.07.11.08.16.11a1,1,0,0,1,.33,1.18,1.58,1.58,0,0,1-1,1.21l-2.26.83-1.13.41a1.55,1.55,0,0,1-.74.13c-.12.61.21,1.06.68.9l.71-.25.7-.26,4-1.46a1.34,1.34,0,0,0,.76-1.18c0-.48-.26-.81-.64-.74s-.44,0-.41-.5-.08-.69-.37-.79a.52.52,0,0,0-.35,0" fill="#e0bcfb" opacity="0.75"/>
              <path d="M43.39,29.74a1.17,1.17,0,0,0-.49.4.67.67,0,0,1,.55.5,1.72,1.72,0,0,1-.89,1.94c-.55.22-1.1.42-1.65.62s-1.41.51-2.11.75l-.06,0c-.15.05-.33.1-.43-.08-.16.7.17,1.19.69,1l5.4-2a1,1,0,0,0,.42-.32,1.42,1.42,0,0,0,.31-1.1c-.07-.38-.31-.56-.64-.5s-.43-.09-.39-.42-.05-.74-.33-.85a.46.46,0,0,0-.38,0" fill="#e0bcfb" opacity="0.75"/>
              <polyline points="29.76 40.55 29.1 40.79 28.5 44.39 27.94 41.21 27.29 41.45 28.05 45.22 28.95 44.89 29.76 40.55" fill="#3c122c" opacity="0.75"/>
              <path d="M31.64,40.88l-1.28.46V42l.63-.23v1.82l-.8.3v.61l2.26-.82V43l-.8.29V40.88m0-1.49-.65.23v.93l.65-.23v-.93" fill="#3c122c" opacity="0.75"/>
              <path d="M34.12,39.1l-.64.24v.87l-.63.23v.61l.63-.23v1.41c0,.39.06.64.19.74s.38.07.76-.06l.53-.2V42.1l-.5.18c-.12,0-.21,0-.26,0s-.08-.13-.08-.26V40.59l.84-.31v-.61l-.84.3V39.1" fill="#3c122c" opacity="0.75"/>
              <path d="M36.57,41.65a.27.27,0,0,1-.27,0,.38.38,0,0,1-.1-.3.68.68,0,0,1,.14-.44,1.31,1.31,0,0,1,.51-.3l.26-.09v0a1.71,1.71,0,0,1-.15.72.72.72,0,0,1-.39.38m.1-2.68a2.27,2.27,0,0,0-.47.23,2.89,2.89,0,0,0-.43.31v.68a2.58,2.58,0,0,1,.46-.39,2,2,0,0,1,.45-.24.43.43,0,0,1,.33,0c.08,0,.11.12.11.25v.13l-.45.16a2.06,2.06,0,0,0-.87.57,1.46,1.46,0,0,0-.28.9.86.86,0,0,0,.23.68.65.65,0,0,0,.66,0,1.22,1.22,0,0,0,.4-.25,1.4,1.4,0,0,0,.3-.42v.34l.64-.24V40a1.38,1.38,0,0,0-.24-1q-.24-.22-.84,0" fill="#3c122c" opacity="0.75"/>
              <path d="M39.54,36.81l-1.3.48v.61l.65-.24V40a1.4,1.4,0,0,0,.2.91c.13.14.35.16.66,0l.69-.26V40.1l-.52.19c-.15.05-.25,0-.31,0a.87.87,0,0,1-.09-.48l0-3" fill="#3c122c" opacity="0.75"/>
              <path d="M42.52,36.92l-1.28.46V38l.63-.23v1.83l-.8.29v.61l2.26-.82v-.61l-.8.29V36.92m0-1.49-.65.24v.93l.64-.24v-.93" fill="#3c122c" opacity="0.75"/>
              <polyline points="44.51 35.01 43.86 35.24 43.84 39.47 44.49 39.24 44.49 38.08 44.72 37.74 45.39 38.91 46.1 38.65 45.12 37.1 46.06 35.63 45.28 35.91 44.5 37.23 44.51 35.01" fill="#3c122c" opacity="0.75"/>
            </g>
          </g>
        </g>
      </g>
    </g>
  </g>
  <g>
    <rect x="40.92" y="37.51" width="1.14" height="1.14" fill="#fff"/>
    <rect x="40.92" y="36.37" width="1.14" height="1.14" fill="#fff"/>
    <rect x="40.92" y="12.49" width="1.14" height="1.14" fill="#fff"/>
    <rect x="40.92" y="11.36" width="1.14" height="1.14" fill="#fff"/>
    <rect x="39.78" y="38.64" width="1.14" height="1.14" fill="#fff"/>
    <rect x="39.78" y="37.51" width="1.14" height="1.14" fill="#ef5454"/>
    <rect x="39.78" y="36.37" width="1.14" height="1.14" fill="#ef5454"/>
    <rect x="39.78" y="35.23" width="1.14" height="1.14" fill="#fff"/>
    <rect x="39.78" y="13.63" width="1.14" height="1.14" fill="#fff"/>
    <rect x="39.78" y="12.49" width="1.14" height="1.14" fill="#aa0707"/>
    <rect x="39.78" y="11.36" width="1.14" height="1.14" fill="#ef5454"/>
    <rect x="39.78" y="10.22" width="1.14" height="1.14" fill="#fff"/>
    <rect x="38.64" y="39.78" width="1.14" height="1.14" fill="#fff"/>
    <rect x="38.64" y="38.64" width="1.14" height="1.14" fill="#aa0707"/>
    <rect x="38.64" y="37.51" width="1.14" height="1.14" fill="#cc1d1d"/>
    <rect x="38.64" y="36.37" width="1.14" height="1.14" fill="#cc1d1d"/>
    <rect x="38.64" y="35.23" width="1.14" height="1.14" fill="#ef5454"/>
    <rect x="38.64" y="34.1" width="1.14" height="1.14" fill="#fff"/>
    <rect x="38.64" y="14.77" width="1.14" height="1.14" fill="#fff"/>
    <rect x="38.64" y="13.63" width="1.14" height="1.14" fill="#aa0707"/>
    <rect x="38.64" y="12.49" width="1.14" height="1.14" fill="#cc1d1d"/>
    <rect x="38.64" y="11.36" width="1.14" height="1.14" fill="#cc1d1d"/>
    <rect x="38.64" y="10.22" width="1.14" height="1.14" fill="#ef5454"/>
    <rect x="38.64" y="9.08" width="1.14" height="1.14" fill="#fff"/>
    <rect x="37.51" y="40.92" width="1.14" height="1.14" fill="#fff"/>
    <rect x="37.51" y="39.78" width="1.14" height="1.14" fill="#aa0707"/>
    <rect x="37.51" y="38.64" width="1.14" height="1.14" fill="#cc1d1d"/>
    <rect x="37.51" y="37.51" width="1.14" height="1.14" fill="#cc1d1d"/>
    <rect x="37.51" y="36.37" width="1.14" height="1.14" fill="#cc1d1d"/>
    <rect x="37.51" y="35.23" width="1.14" height="1.14" fill="#cc1d1d"/>
    <rect x="37.51" y="34.1" width="1.14" height="1.14" fill="#ef5454"/>
    <rect x="37.51" y="32.96" width="1.14" height="1.14" fill="#fff"/>
    <rect x="37.51" y="15.9" width="1.14" height="1.14" fill="#fff"/>
    <rect x="37.51" y="14.77" width="1.14" height="1.14" fill="#aa0707"/>
    <rect x="37.51" y="13.63" width="1.14" height="1.14" fill="#cc1d1d"/>
    <rect x="37.51" y="12.49" width="1.14" height="1.14" fill="#cc1d1d"/>
    <rect x="37.51" y="11.36" width="1.14" height="1.14" fill="#cc1d1d"/>
    <rect x="37.51" y="10.22" width="1.14" height="1.14" fill="#cc1d1d"/>
    <rect x="37.51" y="9.08" width="1.14" height="1.14" fill="#ef5454"/>
    <rect x="37.51" y="7.95" width="1.14" height="1.14" fill="#fff"/>
    <rect x="36.37" y="40.92" width="1.14" height="1.14" fill="#fff"/>
    <rect x="36.37" y="39.78" width="1.14" height="1.14" fill="#aa0707"/>
    <rect x="36.37" y="38.64" width="1.14" height="1.14" fill="#cc1d1d"/>
    <rect x="36.37" y="37.51" width="1.14" height="1.14" fill="#cc1d1d"/>
    <rect x="36.37" y="36.37" width="1.14" height="1.14" fill="#cc1d1d"/>
    <rect x="36.37" y="35.23" width="1.14" height="1.14" fill="#cc1d1d"/>
    <rect x="36.37" y="34.1" width="1.14" height="1.14" fill="#cc1d1d"/>
    <rect x="36.37" y="32.96" width="1.14" height="1.14" fill="#ef5454"/>
    <rect x="36.37" y="31.82" width="1.14" height="1.14" fill="#fff"/>
    <rect x="36.37" y="17.04" width="1.14" height="1.14" fill="#fff"/>
    <rect x="36.37" y="15.9" width="1.14" height="1.14" fill="#aa0707"/>
    <rect x="36.37" y="14.77" width="1.14" height="1.14" fill="#cc1d1d"/>
    <rect x="36.37" y="13.63" width="1.14" height="1.14" fill="#cc1d1d"/>
    <rect x="36.37" y="12.49" width="1.14" height="1.14" fill="#cc1d1d"/>
    <rect x="36.37" y="11.36" width="1.14" height="1.14" fill="#cc1d1d"/>
    <rect x="36.37" y="10.22" width="1.14" height="1.14" fill="#cc1d1d"/>
    <rect x="36.37" y="9.08" width="1.14" height="1.14" fill="#ef5454"/>
    <rect x="36.37" y="7.95" width="1.14" height="1.14" fill="#fff"/>
    <rect x="35.23" y="39.78" width="1.14" height="1.14" fill="#fff"/>
    <rect x="35.23" y="38.64" width="1.14" height="1.14" fill="#aa0707"/>
    <rect x="35.23" y="37.51" width="1.14" height="1.14" fill="#cc1d1d"/>
    <rect x="35.23" y="36.37" width="1.14" height="1.14" fill="#cc1d1d"/>
    <rect x="35.23" y="35.23" width="1.14" height="1.14" fill="#cc1d1d"/>
    <rect x="35.23" y="34.1" width="1.14" height="1.14" fill="#cc1d1d"/>
    <rect x="35.23" y="32.96" width="1.14" height="1.14" fill="#cc1d1d"/>
    <rect x="35.23" y="31.82" width="1.14" height="1.14" fill="#ef5454"/>
    <rect x="35.23" y="30.68" width="1.14" height="1.14" fill="#fff"/>
    <rect x="35.23" y="18.18" width="1.14" height="1.14" fill="#fff"/>
    <rect x="35.23" y="17.04" width="1.14" height="1.14" fill="#aa0707"/>
    <rect x="35.23" y="15.9" width="1.14" height="1.14" fill="#cc1d1d"/>
    <rect x="35.23" y="14.77" width="1.14" height="1.14" fill="#cc1d1d"/>
    <rect x="35.23" y="13.63" width="1.14" height="1.14" fill="#cc1d1d"/>
    <rect x="35.23" y="12.49" width="1.14" height="1.14" fill="#cc1d1d"/>
    <rect x="35.23" y="11.36" width="1.14" height="1.14" fill="#cc1d1d"/>
    <rect x="35.23" y="10.22" width="1.14" height="1.14" fill="#ef5454"/>
    <rect x="35.23" y="9.08" width="1.14" height="1.14" fill="#fff"/>
    <rect x="34.1" y="38.64" width="1.14" height="1.14" fill="#fff"/>
    <rect x="34.1" y="37.51" width="1.14" height="1.14" fill="#aa0707"/>
    <rect x="34.1" y="36.37" width="1.14" height="1.14" fill="#cc1d1d"/>
    <rect x="34.1" y="35.23" width="1.14" height="1.14" fill="#cc1d1d"/>
    <rect x="34.1" y="34.1" width="1.14" height="1.14" fill="#cc1d1d"/>
    <rect x="34.1" y="32.96" width="1.14" height="1.14" fill="#cc1d1d"/>
    <rect x="34.1" y="31.82" width="1.14" height="1.14" fill="#cc1d1d"/>
    <rect x="34.1" y="30.68" width="1.14" height="1.14" fill="#ef5454"/>
    <rect x="34.1" y="29.55" width="1.14" height="1.14" fill="#fff"/>
    <rect x="34.1" y="19.31" width="1.14" height="1.14" fill="#fff"/>
    <rect x="34.1" y="18.18" width="1.14" height="1.14" fill="#aa0707"/>
    <rect x="34.1" y="17.04" width="1.14" height="1.14" fill="#cc1d1d"/>
    <rect x="34.1" y="15.9" width="1.14" height="1.14" fill="#cc1d1d"/>
    <rect x="34.1" y="14.77" width="1.14" height="1.14" fill="#cc1d1d"/>
    <rect x="34.1" y="13.63" width="1.14" height="1.14" fill="#cc1d1d"/>
    <rect x="34.1" y="12.49" width="1.14" height="1.14" fill="#cc1d1d"/>
    <rect x="34.1" y="11.36" width="1.14" height="1.14" fill="#ef5454"/>
    <rect x="34.1" y="10.22" width="1.14" height="1.14" fill="#fff"/>
    <rect x="32.96" y="37.51" width="1.14" height="1.14" fill="#fff"/>
    <rect x="32.96" y="36.37" width="1.14" height="1.14" fill="#aa0707"/>
    <rect x="32.96" y="35.23" width="1.14" height="1.14" fill="#cc1d1d"/>
    <rect x="32.96" y="34.1" width="1.14" height="1.14" fill="#cc1d1d"/>
    <rect x="32.96" y="32.96" width="1.14" height="1.14" fill="#cc1d1d"/>
    <rect x="32.96" y="31.82" width="1.14" height="1.14" fill="#cc1d1d"/>
    <rect x="32.96" y="30.68" width="1.14" height="1.14" fill="#cc1d1d"/>
    <rect x="32.96" y="29.55" width="1.14" height="1.14" fill="#ef5454"/>
    <rect x="32.96" y="28.41" width="1.14" height="1.14" fill="#fff"/>
    <rect x="32.96" y="20.45" width="1.14" height="1.14" fill="#fff"/>
    <rect x="32.96" y="19.31" width="1.14" height="1.14" fill="#aa0707"/>
    <rect x="32.96" y="18.18" width="1.14" height="1.14" fill="#cc1d1d"/>
    <rect x="32.96" y="17.04" width="1.14" height="1.14" fill="#cc1d1d"/>
    <rect x="32.96" y="15.9" width="1.14" height="1.14" fill="#cc1d1d"/>
    <rect x="32.96" y="14.77" width="1.14" height="1.14" fill="#cc1d1d"/>
    <rect x="32.96" y="13.63" width="1.14" height="1.14" fill="#cc1d1d"/>
    <rect x="32.96" y="12.49" width="1.14" height="1.14" fill="#ef5454"/>
    <rect x="32.96" y="11.36" width="1.14" height="1.14" fill="#fff"/>
    <rect x="31.82" y="36.37" width="1.14" height="1.14" fill="#fff"/>
    <rect x="31.82" y="35.23" width="1.14" height="1.14" fill="#aa0707"/>
    <rect x="31.82" y="34.1" width="1.14" height="1.14" fill="#cc1d1d"/>
    <rect x="31.82" y="32.96" width="1.14" height="1.14" fill="#cc1d1d"/>
    <rect x="31.82" y="31.82" width="1.14" height="1.14" fill="#cc1d1d"/>
    <rect x="31.82" y="30.68" width="1.14" height="1.14" fill="#cc1d1d"/>
    <rect x="31.82" y="29.55" width="1.14" height="1.14" fill="#cc1d1d"/>
    <rect x="31.82" y="28.41" width="1.14" height="1.14" fill="#ef5454"/>
    <rect x="31.82" y="27.27" width="1.14" height="1.14" fill="#fff"/>
    <rect x="31.82" y="21.59" width="1.14" height="1.14" fill="#fff"/>
    <rect x="31.82" y="20.45" width="1.14" height="1.14" fill="#aa0707"/>
    <rect x="31.82" y="19.31" width="1.14" height="1.14" fill="#cc1d1d"/>
    <rect x="31.82" y="18.18" width="1.14" height="1.14" fill="#cc1d1d"/>
    <rect x="31.82" y="17.04" width="1.14" height="1.14" fill="#cc1d1d"/>
    <rect x="31.82" y="15.9" width="1.14" height="1.14" fill="#cc1d1d"/>
    <rect x="31.82" y="14.77" width="1.14" height="1.14" fill="#cc1d1d"/>
    <rect x="31.82" y="13.63" width="1.14" height="1.14" fill="#ef5454"/>
    <rect x="31.82" y="12.49" width="1.14" height="1.14" fill="#fff"/>
    <rect x="30.68" y="35.23" width="1.14" height="1.14" fill="#fff"/>
    <rect x="30.68" y="34.1" width="1.14" height="1.14" fill="#aa0707"/>
    <rect x="30.68" y="32.96" width="1.14" height="1.14" fill="#cc1d1d"/>
    <rect x="30.68" y="31.82" width="1.14" height="1.14" fill="#cc1d1d"/>
    <rect x="30.68" y="30.68" width="1.14" height="1.14" fill="#cc1d1d"/>
    <rect x="30.68" y="29.55" width="1.14" height="1.14" fill="#cc1d1d"/>
    <rect x="30.68" y="28.41" width="1.14" height="1.14" fill="#cc1d1d"/>
    <rect x="30.68" y="27.27" width="1.14" height="1.14" fill="#ef5454"/>
    <rect x="30.68" y="26.14" width="1.14" height="1.14" fill="#fff"/>
    <rect x="30.68" y="22.73" width="1.14" height="1.14" fill="#fff"/>
    <rect x="30.68" y="21.59" width="1.14" height="1.14" fill="#aa0707"/>
    <rect x="30.68" y="20.45" width="1.14" height="1.14" fill="#cc1d1d"/>
    <rect x="30.68" y="19.31" width="1.14" height="1.14" fill="#cc1d1d"/>
    <rect x="30.68" y="18.18" width="1.14" height="1.14" fill="#cc1d1d"/>
    <rect x="30.68" y="17.04" width="1.14" height="1.14" fill="#cc1d1d"/>
    <rect x="30.68" y="15.9" width="1.14" height="1.14" fill="#cc1d1d"/>
    <rect x="30.68" y="14.77" width="1.14" height="1.14" fill="#ef5454"/>
    <rect x="30.68" y="13.63" width="1.14" height="1.14" fill="#fff"/>
    <rect x="29.55" y="34.1" width="1.14" height="1.14" fill="#fff"/>
    <rect x="29.55" y="32.96" width="1.14" height="1.14" fill="#aa0707"/>
    <rect x="29.55" y="31.82" width="1.14" height="1.14" fill="#cc1d1d"/>
    <rect x="29.55" y="30.68" width="1.14" height="1.14" fill="#cc1d1d"/>
    <rect x="29.55" y="29.55" width="1.14" height="1.14" fill="#cc1d1d"/>
    <rect x="29.55" y="28.41" width="1.14" height="1.14" fill="#cc1d1d"/>
    <rect x="29.55" y="27.27" width="1.14" height="1.14" fill="#cc1d1d"/>
    <rect x="29.55" y="26.14" width="1.14" height="1.14" fill="#ef5454"/>
    <rect x="29.55" y="25" width="1.14" height="1.14" fill="#fff"/>
    <rect x="29.55" y="23.86" width="1.14" height="1.14" fill="#fff"/>
    <rect x="29.55" y="22.73" width="1.14" height="1.14" fill="#aa0707"/>
    <rect x="29.55" y="21.59" width="1.14" height="1.14" fill="#cc1d1d"/>
    <rect x="29.55" y="20.45" width="1.14" height="1.14" fill="#cc1d1d"/>
    <rect x="29.55" y="19.31" width="1.14" height="1.14" fill="#cc1d1d"/>
    <rect x="29.55" y="18.18" width="1.14" height="1.14" fill="#cc1d1d"/>
    <rect x="29.55" y="17.04" width="1.14" height="1.14" fill="#cc1d1d"/>
    <rect x="29.55" y="15.9" width="1.14" height="1.14" fill="#ef5454"/>
    <rect x="29.55" y="14.77" width="1.14" height="1.14" fill="#fff"/>
    <rect x="28.41" y="32.96" width="1.14" height="1.14" fill="#fff"/>
    <rect x="28.41" y="31.82" width="1.14" height="1.14" fill="#aa0707"/>
    <rect x="28.41" y="30.68" width="1.14" height="1.14" fill="#cc1d1d"/>
    <rect x="28.41" y="29.55" width="1.14" height="1.14" fill="#cc1d1d"/>
    <rect x="28.41" y="28.41" width="1.14" height="1.14" fill="#cc1d1d"/>
    <rect x="28.41" y="27.27" width="1.14" height="1.14" fill="#cc1d1d"/>
    <rect x="28.41" y="26.14" width="1.14" height="1.14" fill="#cc1d1d"/>
    <rect x="28.41" y="25" width="1.14" height="1.14" fill="#aa0707"/>
    <rect x="28.41" y="23.86" width="1.14" height="1.14" fill="#aa0707"/>
    <rect x="28.41" y="22.73" width="1.14" height="1.14" fill="#cc1d1d"/>
    <rect x="28.41" y="21.59" width="1.14" height="1.14" fill="#cc1d1d"/>
    <rect x="28.41" y="20.45" width="1.14" height="1.14" fill="#cc1d1d"/>
    <rect x="28.41" y="19.31" width="1.14" height="1.14" fill="#cc1d1d"/>
    <rect x="28.41" y="18.18" width="1.14" height="1.14" fill="#cc1d1d"/>
    <rect x="28.41" y="17.04" width="1.14" height="1.14" fill="#ef5454"/>
    <rect x="28.41" y="15.9" width="1.14" height="1.14" fill="#fff"/>
    <rect x="27.27" y="31.82" width="1.14" height="1.14" fill="#fff"/>
    <rect x="27.27" y="30.68" width="1.14" height="1.14" fill="#aa0707"/>
    <rect x="27.27" y="29.55" width="1.14" height="1.14" fill="#cc1d1d"/>
    <rect x="27.27" y="28.41" width="1.14" height="1.14" fill="#cc1d1d"/>
    <rect x="27.27" y="27.27" width="1.14" height="1.14" fill="#cc1d1d"/>
    <rect x="27.27" y="26.14" width="1.14" height="1.14" fill="#cc1d1d"/>
    <rect x="27.27" y="25" width="1.14" height="1.14" fill="#cc1d1d"/>
    <rect x="27.27" y="23.86" width="1.14" height="1.14" fill="#cc1d1d"/>
    <rect x="27.27" y="22.73" width="1.14" height="1.14" fill="#cc1d1d"/>
    <rect x="27.27" y="21.59" width="1.14" height="1.14" fill="#cc1d1d"/>
    <rect x="27.27" y="20.45" width="1.14" height="1.14" fill="#cc1d1d"/>
    <rect x="27.27" y="19.31" width="1.14" height="1.14" fill="#cc1d1d"/>
    <rect x="27.27" y="18.18" width="1.14" height="1.14" fill="#ef5454"/>
    <rect x="27.27" y="17.04" width="1.14" height="1.14" fill="#fff"/>
    <rect x="26.14" y="30.68" width="1.14" height="1.14" fill="#fff"/>
    <rect x="26.14" y="29.55" width="1.14" height="1.14" fill="#aa0707"/>
    <rect x="26.14" y="28.41" width="1.14" height="1.14" fill="#cc1d1d"/>
    <rect x="26.14" y="27.27" width="1.14" height="1.14" fill="#cc1d1d"/>
    <rect x="26.14" y="26.14" width="1.14" height="1.14" fill="#cc1d1d"/>
    <rect x="26.14" y="25" width="1.14" height="1.14" fill="#cc1d1d"/>
    <rect x="26.14" y="23.86" width="1.14" height="1.14" fill="#cc1d1d"/>
    <rect x="26.14" y="22.73" width="1.14" height="1.14" fill="#cc1d1d"/>
    <rect x="26.14" y="21.59" width="1.14" height="1.14" fill="#cc1d1d"/>
    <rect x="26.14" y="20.45" width="1.14" height="1.14" fill="#cc1d1d"/>
    <rect x="26.14" y="19.31" width="1.14" height="1.14" fill="#ef5454"/>
    <rect x="26.14" y="18.18" width="1.14" height="1.14" fill="#fff"/>
    <rect x="25" y="29.55" width="1.14" height="1.14" fill="#fff"/>
    <rect x="25" y="28.41" width="1.14" height="1.14" fill="#aa0707"/>
    <rect x="25" y="27.27" width="1.14" height="1.14" fill="#cc1d1d"/>
    <rect x="25" y="26.14" width="1.14" height="1.14" fill="#cc1d1d"/>
    <rect x="25" y="25" width="1.14" height="1.14" fill="#cc1d1d"/>
    <rect x="25" y="23.86" width="1.14" height="1.14" fill="#cc1d1d"/>
    <rect x="25" y="22.73" width="1.14" height="1.14" fill="#cc1d1d"/>
    <rect x="25" y="21.59" width="1.14" height="1.14" fill="#cc1d1d"/>
    <rect x="25" y="20.45" width="1.14" height="1.14" fill="#ef5454"/>
    <rect x="25" y="19.31" width="1.14" height="1.14" fill="#fff"/>
    <rect x="23.86" y="29.55" width="1.14" height="1.14" fill="#fff"/>
    <rect x="23.86" y="28.41" width="1.14" height="1.14" fill="#aa0707"/>
    <rect x="23.86" y="27.27" width="1.14" height="1.14" fill="#cc1d1d"/>
    <rect x="23.86" y="26.14" width="1.14" height="1.14" fill="#cc1d1d"/>
    <rect x="23.86" y="25" width="1.14" height="1.14" fill="#cc1d1d"/>
    <rect x="23.86" y="23.86" width="1.14" height="1.14" fill="#cc1d1d"/>
    <rect x="23.86" y="22.73" width="1.14" height="1.14" fill="#cc1d1d"/>
    <rect x="23.86" y="21.59" width="1.14" height="1.14" fill="#cc1d1d"/>
    <rect x="23.86" y="20.45" width="1.14" height="1.14" fill="#ef5454"/>
    <rect x="23.86" y="19.31" width="1.14" height="1.14" fill="#fff"/>
    <rect x="22.73" y="30.68" width="1.14" height="1.14" fill="#fff"/>
    <rect x="22.73" y="29.55" width="1.14" height="1.14" fill="#aa0707"/>
    <rect x="22.73" y="28.41" width="1.14" height="1.14" fill="#cc1d1d"/>
    <rect x="22.73" y="27.27" width="1.14" height="1.14" fill="#cc1d1d"/>
    <rect x="22.73" y="26.14" width="1.14" height="1.14" fill="#cc1d1d"/>
    <rect x="22.73" y="25" width="1.14" height="1.14" fill="#cc1d1d"/>
    <rect x="22.73" y="23.86" width="1.14" height="1.14" fill="#cc1d1d"/>
    <rect x="22.73" y="22.73" width="1.14" height="1.14" fill="#cc1d1d"/>
    <rect x="22.73" y="21.59" width="1.14" height="1.14" fill="#cc1d1d"/>
    <rect x="22.73" y="20.45" width="1.14" height="1.14" fill="#cc1d1d"/>
    <rect x="22.73" y="19.31" width="1.14" height="1.14" fill="#ef5454"/>
    <rect x="22.73" y="18.18" width="1.14" height="1.14" fill="#fff"/>
    <rect x="21.59" y="31.82" width="1.14" height="1.14" fill="#fff"/>
    <rect x="21.59" y="30.68" width="1.14" height="1.14" fill="#aa0707"/>
    <rect x="21.59" y="29.55" width="1.14" height="1.14" fill="#cc1d1d"/>
    <rect x="21.59" y="28.41" width="1.14" height="1.14" fill="#cc1d1d"/>
    <rect x="21.59" y="27.27" width="1.14" height="1.14" fill="#cc1d1d"/>
    <rect x="21.59" y="26.14" width="1.14" height="1.14" fill="#cc1d1d"/>
    <rect x="21.59" y="25" width="1.14" height="1.14" fill="#cc1d1d"/>
    <rect x="21.59" y="23.86" width="1.14" height="1.14" fill="#cc1d1d"/>
    <rect x="21.59" y="22.73" width="1.14" height="1.14" fill="#cc1d1d"/>
    <rect x="21.59" y="21.59" width="1.14" height="1.14" fill="#cc1d1d"/>
    <rect x="21.59" y="20.45" width="1.14" height="1.14" fill="#cc1d1d"/>
    <rect x="21.59" y="19.31" width="1.14" height="1.14" fill="#cc1d1d"/>
    <rect x="21.59" y="18.18" width="1.14" height="1.14" fill="#ef5454"/>
    <rect x="21.59" y="17.04" width="1.14" height="1.14" fill="#fff"/>
    <rect x="20.45" y="32.96" width="1.14" height="1.14" fill="#fff"/>
    <rect x="20.45" y="31.82" width="1.14" height="1.14" fill="#aa0707"/>
    <rect x="20.45" y="30.68" width="1.14" height="1.14" fill="#cc1d1d"/>
    <rect x="20.45" y="29.55" width="1.14" height="1.14" fill="#cc1d1d"/>
    <rect x="20.45" y="28.41" width="1.14" height="1.14" fill="#cc1d1d"/>
    <rect x="20.45" y="27.27" width="1.14" height="1.14" fill="#cc1d1d"/>
    <rect x="20.45" y="26.14" width="1.14" height="1.14" fill="#cc1d1d"/>
    <rect x="20.45" y="25" width="1.14" height="1.14" fill="#aa0707"/>
    <rect x="20.45" y="23.86" width="1.14" height="1.14" fill="#aa0707"/>
    <rect x="20.45" y="22.73" width="1.14" height="1.14" fill="#cc1d1d"/>
    <rect x="20.45" y="21.59" width="1.14" height="1.14" fill="#cc1d1d"/>
    <rect x="20.45" y="20.45" width="1.14" height="1.14" fill="#cc1d1d"/>
    <rect x="20.45" y="19.31" width="1.14" height="1.14" fill="#cc1d1d"/>
    <rect x="20.45" y="18.18" width="1.14" height="1.14" fill="#cc1d1d"/>
    <rect x="20.45" y="17.04" width="1.14" height="1.14" fill="#ef5454"/>
    <rect x="20.45" y="15.9" width="1.14" height="1.14" fill="#fff"/>
    <rect x="19.32" y="34.1" width="1.14" height="1.14" fill="#fff"/>
    <rect x="19.32" y="32.96" width="1.14" height="1.14" fill="#aa0707"/>
    <rect x="19.32" y="31.82" width="1.14" height="1.14" fill="#cc1d1d"/>
    <rect x="19.32" y="30.68" width="1.14" height="1.14" fill="#cc1d1d"/>
    <rect x="19.32" y="29.55" width="1.14" height="1.14" fill="#cc1d1d"/>
    <rect x="19.32" y="28.41" width="1.14" height="1.14" fill="#cc1d1d"/>
    <rect x="19.32" y="27.27" width="1.14" height="1.14" fill="#cc1d1d"/>
    <rect x="19.32" y="26.14" width="1.14" height="1.14" fill="#ef5454"/>
    <rect x="19.32" y="25" width="1.14" height="1.14" fill="#fff"/>
    <rect x="19.32" y="23.86" width="1.14" height="1.14" fill="#fff"/>
    <rect x="19.32" y="22.73" width="1.14" height="1.14" fill="#aa0707"/>
    <rect x="19.32" y="21.59" width="1.14" height="1.14" fill="#cc1d1d"/>
    <rect x="19.32" y="20.45" width="1.14" height="1.14" fill="#cc1d1d"/>
    <rect x="19.32" y="19.31" width="1.14" height="1.14" fill="#cc1d1d"/>
    <rect x="19.32" y="18.18" width="1.14" height="1.14" fill="#cc1d1d"/>
    <rect x="19.32" y="17.04" width="1.14" height="1.14" fill="#cc1d1d"/>
    <rect x="19.32" y="15.9" width="1.14" height="1.14" fill="#ef5454"/>
    <rect x="19.32" y="14.77" width="1.14" height="1.14" fill="#fff"/>
    <rect x="18.18" y="35.23" width="1.14" height="1.14" fill="#fff"/>
    <rect x="18.18" y="34.1" width="1.14" height="1.14" fill="#aa0707"/>
    <rect x="18.18" y="32.96" width="1.14" height="1.14" fill="#cc1d1d"/>
    <rect x="18.18" y="31.82" width="1.14" height="1.14" fill="#cc1d1d"/>
    <rect x="18.18" y="30.68" width="1.14" height="1.14" fill="#cc1d1d"/>
    <rect x="18.18" y="29.55" width="1.14" height="1.14" fill="#cc1d1d"/>
    <rect x="18.18" y="28.41" width="1.14" height="1.14" fill="#cc1d1d"/>
    <rect x="18.18" y="27.27" width="1.14" height="1.14" fill="#ef5454"/>
    <rect x="18.18" y="26.14" width="1.14" height="1.14" fill="#fff"/>
    <rect x="18.18" y="22.73" width="1.14" height="1.14" fill="#fff"/>
    <rect x="18.18" y="21.59" width="1.14" height="1.14" fill="#aa0707"/>
    <rect x="18.18" y="20.45" width="1.14" height="1.14" fill="#cc1d1d"/>
    <rect x="18.18" y="19.31" width="1.14" height="1.14" fill="#cc1d1d"/>
    <rect x="18.18" y="18.18" width="1.14" height="1.14" fill="#cc1d1d"/>
    <rect x="18.18" y="17.04" width="1.14" height="1.14" fill="#cc1d1d"/>
    <rect x="18.18" y="15.9" width="1.14" height="1.14" fill="#cc1d1d"/>
    <rect x="18.18" y="14.77" width="1.14" height="1.14" fill="#ef5454"/>
    <rect x="18.18" y="13.63" width="1.14" height="1.14" fill="#fff"/>
    <rect x="17.04" y="36.37" width="1.14" height="1.14" fill="#fff"/>
    <rect x="17.04" y="35.23" width="1.14" height="1.14" fill="#aa0707"/>
    <rect x="17.04" y="34.1" width="1.14" height="1.14" fill="#cc1d1d"/>
    <rect x="17.04" y="32.96" width="1.14" height="1.14" fill="#cc1d1d"/>
    <rect x="17.04" y="31.82" width="1.14" height="1.14" fill="#cc1d1d"/>
    <rect x="17.04" y="30.68" width="1.14" height="1.14" fill="#cc1d1d"/>
    <rect x="17.04" y="29.55" width="1.14" height="1.14" fill="#cc1d1d"/>
    <rect x="17.04" y="28.41" width="1.14" height="1.14" fill="#ef5454"/>
    <rect x="17.04" y="27.27" width="1.14" height="1.14" fill="#fff"/>
    <rect x="17.04" y="21.59" width="1.14" height="1.14" fill="#fff"/>
    <rect x="17.04" y="20.45" width="1.14" height="1.14" fill="#aa0707"/>
    <rect x="17.04" y="19.31" width="1.14" height="1.14" fill="#cc1d1d"/>
    <rect x="17.04" y="18.18" width="1.14" height="1.14" fill="#cc1d1d"/>
    <rect x="17.04" y="17.04" width="1.14" height="1.14" fill="#cc1d1d"/>
    <rect x="17.04" y="15.9" width="1.14" height="1.14" fill="#cc1d1d"/>
    <rect x="17.04" y="14.77" width="1.14" height="1.14" fill="#cc1d1d"/>
    <rect x="17.04" y="13.63" width="1.14" height="1.14" fill="#ef5454"/>
    <rect x="17.04" y="12.49" width="1.14" height="1.14" fill="#fff"/>
    <rect x="15.9" y="37.51" width="1.14" height="1.14" fill="#fff"/>
    <rect x="15.9" y="36.37" width="1.14" height="1.14" fill="#aa0707"/>
    <rect x="15.9" y="35.23" width="1.14" height="1.14" fill="#cc1d1d"/>
    <rect x="15.9" y="34.1" width="1.14" height="1.14" fill="#cc1d1d"/>
    <rect x="15.9" y="32.96" width="1.14" height="1.14" fill="#cc1d1d"/>
    <rect x="15.9" y="31.82" width="1.14" height="1.14" fill="#cc1d1d"/>
    <rect x="15.9" y="30.68" width="1.14" height="1.14" fill="#cc1d1d"/>
    <rect x="15.9" y="29.55" width="1.14" height="1.14" fill="#ef5454"/>
    <rect x="15.9" y="28.41" width="1.14" height="1.14" fill="#fff"/>
    <rect x="15.9" y="20.45" width="1.14" height="1.14" fill="#fff"/>
    <rect x="15.9" y="19.31" width="1.14" height="1.14" fill="#aa0707"/>
    <rect x="15.9" y="18.18" width="1.14" height="1.14" fill="#cc1d1d"/>
    <rect x="15.9" y="17.04" width="1.14" height="1.14" fill="#cc1d1d"/>
    <rect x="15.9" y="15.9" width="1.14" height="1.14" fill="#cc1d1d"/>
    <rect x="15.9" y="14.77" width="1.14" height="1.14" fill="#cc1d1d"/>
    <rect x="15.9" y="13.63" width="1.14" height="1.14" fill="#cc1d1d"/>
    <rect x="15.9" y="12.49" width="1.14" height="1.14" fill="#ef5454"/>
    <rect x="15.9" y="11.36" width="1.14" height="1.14" fill="#fff"/>
    <rect x="14.77" y="38.64" width="1.14" height="1.14" fill="#fff"/>
    <rect x="14.77" y="37.51" width="1.14" height="1.14" fill="#aa0707"/>
    <rect x="14.77" y="36.37" width="1.14" height="1.14" fill="#cc1d1d"/>
    <rect x="14.77" y="35.23" width="1.14" height="1.14" fill="#cc1d1d"/>
    <rect x="14.77" y="34.1" width="1.14" height="1.14" fill="#cc1d1d"/>
    <rect x="14.77" y="32.96" width="1.14" height="1.14" fill="#cc1d1d"/>
    <rect x="14.77" y="31.82" width="1.14" height="1.14" fill="#cc1d1d"/>
    <rect x="14.77" y="30.68" width="1.14" height="1.14" fill="#ef5454"/>
    <rect x="14.77" y="29.55" width="1.14" height="1.14" fill="#fff"/>
    <rect x="14.77" y="19.31" width="1.14" height="1.14" fill="#fff"/>
    <rect x="14.77" y="18.18" width="1.14" height="1.14" fill="#aa0707"/>
    <rect x="14.77" y="17.04" width="1.14" height="1.14" fill="#cc1d1d"/>
    <rect x="14.77" y="15.9" width="1.14" height="1.14" fill="#cc1d1d"/>
    <rect x="14.77" y="14.77" width="1.14" height="1.14" fill="#cc1d1d"/>
    <rect x="14.77" y="13.63" width="1.14" height="1.14" fill="#cc1d1d"/>
    <rect x="14.77" y="12.49" width="1.14" height="1.14" fill="#cc1d1d"/>
    <rect x="14.77" y="11.36" width="1.14" height="1.14" fill="#ef5454"/>
    <rect x="14.77" y="10.22" width="1.14" height="1.14" fill="#fff"/>
    <rect x="13.63" y="39.78" width="1.14" height="1.14" fill="#fff"/>
    <rect x="13.63" y="38.64" width="1.14" height="1.14" fill="#aa0707"/>
    <rect x="13.63" y="37.51" width="1.14" height="1.14" fill="#cc1d1d"/>
    <rect x="13.63" y="36.37" width="1.14" height="1.14" fill="#cc1d1d"/>
    <rect x="13.63" y="35.23" width="1.14" height="1.14" fill="#cc1d1d"/>
    <rect x="13.63" y="34.1" width="1.14" height="1.14" fill="#cc1d1d"/>
    <rect x="13.63" y="32.96" width="1.14" height="1.14" fill="#cc1d1d"/>
    <rect x="13.63" y="31.82" width="1.14" height="1.14" fill="#ef5454"/>
    <rect x="13.63" y="30.68" width="1.14" height="1.14" fill="#fff"/>
    <rect x="13.63" y="18.18" width="1.14" height="1.14" fill="#fff"/>
    <rect x="13.63" y="17.04" width="1.14" height="1.14" fill="#aa0707"/>
    <rect x="13.63" y="15.9" width="1.14" height="1.14" fill="#cc1d1d"/>
    <rect x="13.63" y="14.77" width="1.14" height="1.14" fill="#cc1d1d"/>
    <rect x="13.63" y="13.63" width="1.14" height="1.14" fill="#cc1d1d"/>
    <rect x="13.63" y="12.49" width="1.14" height="1.14" fill="#cc1d1d"/>
    <rect x="13.63" y="11.36" width="1.14" height="1.14" fill="#cc1d1d"/>
    <rect x="13.63" y="10.22" width="1.14" height="1.14" fill="#ef5454"/>
    <rect x="13.63" y="9.08" width="1.14" height="1.14" fill="#fff"/>
    <rect x="12.49" y="40.92" width="1.14" height="1.14" fill="#fff"/>
    <rect x="12.49" y="39.78" width="1.14" height="1.14" fill="#aa0707"/>
    <rect x="12.49" y="38.64" width="1.14" height="1.14" fill="#cc1d1d"/>
    <rect x="12.49" y="37.51" width="1.14" height="1.14" fill="#cc1d1d"/>
    <rect x="12.49" y="36.37" width="1.14" height="1.14" fill="#cc1d1d"/>
    <rect x="12.49" y="35.23" width="1.14" height="1.14" fill="#cc1d1d"/>
    <rect x="12.49" y="34.1" width="1.14" height="1.14" fill="#cc1d1d"/>
    <rect x="12.49" y="32.96" width="1.14" height="1.14" fill="#ef5454"/>
    <rect x="12.49" y="31.82" width="1.14" height="1.14" fill="#fff"/>
    <rect x="12.49" y="17.04" width="1.14" height="1.14" fill="#fff"/>
    <rect x="12.49" y="15.9" width="1.14" height="1.14" fill="#aa0707"/>
    <rect x="12.49" y="14.77" width="1.14" height="1.14" fill="#cc1d1d"/>
    <rect x="12.49" y="13.63" width="1.14" height="1.14" fill="#cc1d1d"/>
    <rect x="12.49" y="12.49" width="1.14" height="1.14" fill="#cc1d1d"/>
    <rect x="12.49" y="11.36" width="1.14" height="1.14" fill="#cc1d1d"/>
    <rect x="12.49" y="10.22" width="1.14" height="1.14" fill="#cc1d1d"/>
    <rect x="12.49" y="9.08" width="1.14" height="1.14" fill="#ef5454"/>
    <rect x="12.49" y="7.95" width="1.14" height="1.14" fill="#fff"/>
    <rect x="11.36" y="40.92" width="1.14" height="1.14" fill="#fff"/>
    <rect x="11.36" y="39.78" width="1.14" height="1.14" fill="#aa0707"/>
    <rect x="11.36" y="38.64" width="1.14" height="1.14" fill="#cc1d1d"/>
    <rect x="11.36" y="37.51" width="1.14" height="1.14" fill="#cc1d1d"/>
    <rect x="11.36" y="36.37" width="1.14" height="1.14" fill="#cc1d1d"/>
    <rect x="11.36" y="35.23" width="1.14" height="1.14" fill="#cc1d1d"/>
    <rect x="11.36" y="34.1" width="1.14" height="1.14" fill="#ef5454"/>
    <rect x="11.36" y="32.96" width="1.14" height="1.14" fill="#fff"/>
    <rect x="11.36" y="15.9" width="1.14" height="1.14" fill="#fff"/>
    <rect x="11.36" y="14.77" width="1.14" height="1.14" fill="#aa0707"/>
    <rect x="11.36" y="13.63" width="1.14" height="1.14" fill="#cc1d1d"/>
    <rect x="11.36" y="12.49" width="1.14" height="1.14" fill="#cc1d1d"/>
    <rect x="11.36" y="11.36" width="1.14" height="1.14" fill="#cc1d1d"/>
    <rect x="11.36" y="10.22" width="1.14" height="1.14" fill="#cc1d1d"/>
    <rect x="11.36" y="9.08" width="1.14" height="1.14" fill="#ef5454"/>
    <rect x="11.36" y="7.95" width="1.14" height="1.14" fill="#fff"/>
    <rect x="10.22" y="39.78" width="1.14" height="1.14" fill="#fff"/>
    <rect x="10.22" y="38.64" width="1.14" height="1.14" fill="#aa0707"/>
    <rect x="10.22" y="37.51" width="1.14" height="1.14" fill="#cc1d1d"/>
    <rect x="10.22" y="36.37" width="1.14" height="1.14" fill="#cc1d1d"/>
    <rect x="10.22" y="35.23" width="1.14" height="1.14" fill="#ef5454"/>
    <rect x="10.22" y="34.1" width="1.14" height="1.14" fill="#fff"/>
    <rect x="10.22" y="14.77" width="1.14" height="1.14" fill="#fff"/>
    <rect x="10.22" y="13.63" width="1.14" height="1.14" fill="#aa0707"/>
    <rect x="10.22" y="12.49" width="1.14" height="1.14" fill="#cc1d1d"/>
    <rect x="10.22" y="11.36" width="1.14" height="1.14" fill="#cc1d1d"/>
    <rect x="10.22" y="10.22" width="1.14" height="1.14" fill="#ef5454"/>
    <rect x="10.22" y="9.08" width="1.14" height="1.14" fill="#fff"/>
    <rect x="9.08" y="38.64" width="1.14" height="1.14" fill="#fff"/>
    <rect x="9.08" y="37.51" width="1.14" height="1.14" fill="#aa0707"/>
    <rect x="9.08" y="36.37" width="1.14" height="1.14" fill="#ef5454"/>
    <rect x="9.08" y="35.23" width="1.14" height="1.14" fill="#fff"/>
    <rect x="9.08" y="13.63" width="1.14" height="1.14" fill="#fff"/>
    <rect x="9.08" y="12.49" width="1.14" height="1.14" fill="#aa0707"/>
    <rect x="9.08" y="11.36" width="1.14" height="1.14" fill="#ef5454"/>
    <rect x="9.08" y="10.22" width="1.14" height="1.14" fill="#fff"/>
    <rect x="7.95" y="37.51" width="1.14" height="1.14" fill="#fff"/>
    <rect x="7.95" y="36.37" width="1.14" height="1.14" fill="#fff"/>
    <rect x="7.95" y="12.49" width="1.14" height="1.14" fill="#fff"/>
    <rect x="7.95" y="11.36" width="1.14" height="1.14" fill="#fff"/>
  </g>
</svg>
